<svg xmlns="http://www.w3.org/2000/svg" width="400" height="231.748" viewBox="0 0 400 231.748"><path d="M196.218.805c-8.945 3.049-14.23 7.216-26.748 21.086-15.86 17.575-25.745 24.181-49.049 32.782-13.644 5.035-20.019 7.959-26.094 11.969-7.517 4.961-10.365 7.895-19.419 20.006-9.849 13.172-12.83 15.575-25.739 20.744-10.47 4.193-14.46 6.252-17.307 8.933-4.631 4.362-5.587 4.95-13.568 8.357-19.899 8.495-22.304 12.569-13.517 22.896 1.512 1.777 3.24 3.932 3.84 4.789 7.923 11.311 12.91 13.715 33.904 16.347 11.385 1.428 13.606 1.887 15.769 3.258 1.745 1.105 2.045 2.177.867 3.094-.198.154-3.197 1.213-6.664 2.353-8.613 2.832-9.392 3.313-9.578 5.902-.337 4.686 6.53 12.54 13.971 15.978 7.777 3.593 15.32 4.053 31.825 1.94 28.406-3.635 45.197-2.926 61.17 2.585 6.358 2.194 12.203 4.903 18.737 8.683 5.633 3.259 5.907 3.402 7.691 4.009 12.772 4.344 27.982-5.413 39.95-25.629 3.464-5.85 4.395-6.463 9.873-6.498 2.017-.014 4.905-.188 6.418-.389 1.513-.2 4.04-.42 5.616-.489 4.667-.205 9.074-1.438 16.748-4.684 6.333-2.679 9.162-4.962 12.95-10.452 3.915-5.675 5.541-7.001 13.129-10.702 6.88-3.357 7.481-4.478 3.167-5.914-3.734-1.242-3.449-1.654 3.712-5.373 5.498-2.855 7.181-4.206 9.189-7.371 2.345-3.698-.556-4.029-7.729-.882-13.019 5.71-21.743 6.369-41.997 3.173-15.805-2.494-17.972-2.727-25.329-2.726-8.999.002-14.813 1.1-20.289 3.83-10.138 5.054-10.77 5.459-19.297 12.391-6.023 4.896-7.671 5.239-12.773 2.665a314 314 0 0 0-5.062-2.474c-4.341-2.07-5.455-3.5-7.444-9.548-2.312-7.031-2.461-9.483-.778-12.783 2.191-4.294 5.838-4.707 15.927-1.801 30.115 8.672 56.96 7.861 72.219-2.183 4.086-2.689 6.715-6.799 6.001-9.382-.49-1.776-1.575-1.847-7.093-.461-11.24 2.822-17.594 2.582-23.847-.904a91 91 0 0 0-5.673-2.845c-4.672-2.109-5.471-2.74-11.084-8.758-2.329-2.497-3.762-3.769-7.103-6.304-2.558-1.941-5.47-4.422-7.491-6.384-6.625-6.433-6.61-6.49 3.33-12.679 12.614-7.853 17.821-12.943 23.683-23.148 2.121-3.691 4.434-4.076 9.947-1.654 7.721 3.392 13.816 9.052 24.439 22.696 17.78 22.835 27.415 29.11 52.044 33.897 13.539 2.63 24.069 2.744 24.069.26 0-.895-1.304-1.402-5.846-2.274-25.572-4.911-47.399-18.594-52.603-32.976-3.371-9.314 1.851-15.243 16.615-18.867 6.968-1.71 17.613-2.301 23.321-1.294 6.783 1.197 6.091-.277-1.265-2.695-5.82-1.914-9.745-2.421-26.641-3.446-7.307-.443-10.904-.827-16.007-1.709-7.616-1.316-13.635-1.512-35.455-1.154l-6.993.115-1.144-.587c-2.042-1.046-2.361-2.027-2.641-8.124-.496-10.776-1.75-16.111-6.213-26.422C205.4.964 202.689-1.401 196.218.805m1.834 13.825c5.201 1.365 9.802 6.472 12.224 13.569 4.039 11.835 3.685 23.293-.848 27.436-8.714 7.964-20.432 1.143-20.56-11.967-.052-5.27-1.915-6.579-4.634-3.255-3.842 4.699-4.765 12.136-2.838 22.872 1.06 5.907 1.198 8.055.753 11.792-.869 7.302-2.083 8.462-6.46 6.171-6.923-3.625-7.491-3.873-10.875-4.753a156 156 0 0 1-6.189-1.764c-4.799-1.509-5.713-1.668-9.628-1.674-6.03-.008-9.332.998-8.483 2.585.376.702 1.197 1.04 8.358 3.444 13.765 4.623 18.062 6.87 23.401 12.237 7.389 7.427 8.498 13.295 2.718 14.377-3.91.733-8.402-.683-16.622-5.24-17.625-9.771-35.85-14.565-54.062-14.22-8.191.155-8.433.252-16.399 6.595-4.734 3.77-7.363 6.31-8.095 7.823-.975 2.015-.36 2.192 3.975 1.141a151 151 0 0 1 4.693-1.057c2.84-.57 4.552-1.286 7.903-3.303 7.849-4.725 12.158-5.538 19.581-3.694 1.562.388 5.018 1.169 7.679 1.735 13.266 2.821 17.595 5.036 21.684 11.098 3.957 5.866 2.194 9.213-6.082 11.55-8.189 2.312-6.536 2.095-15.922 2.098-10.945.004-11.762-.235-15.823-4.627-3.294-3.564-3.599-5.331-1.734-10.04 2.26-5.706 1.362-6.417-4.466-3.537-6.928 3.424-9.604 3.913-20.04 3.667-7.259-.171-8.429 1.209-2.866 3.379l6.304 2.461c6.048 2.361 7.525 3.22 10.639 6.188 3.454 3.29 5.584 4.663 13.64 8.794 6.242 3.2 12.12 4.257 22.848 4.107l5.287-.074.441.542c.595.73.552 1.52-.249 4.602-.923 3.548-1.019 4.82-.702 9.33.405 5.787.642 7.462 1.533 10.856 1.636 6.234 1.598 11.631-.129 18.237-1.847 7.069-3.242 9.19-6.699 10.19-3.602 1.042-5.255 1.713-8.901 3.608-14.731 7.658-15.932 7.989-28.883 7.954-15.121-.041-28.05-5.942-28.589-13.048-.255-3.357 5.277-7.029 18.297-12.148 2.824-1.11 7.559-2.99 10.522-4.178a983 983 0 0 1 6.647-2.644c1.003-.386 1.972-.513 4.733-.618 7.395-.282 5.535-3.151-4.681-7.221-9.05-3.606-17.126-3.987-33.841-1.598-7.331 1.048-9.244 1.009-15.724-.322-6.797-1.397-7.515-1.468-15.358-1.528-9.583-.072-12.098-.712-15.621-3.972-3.647-3.374-3.613-5.733.142-9.656 2.642-2.762 3.112-3.686 3.312-6.514.246-3.477.974-3.604 8.27-1.439 8.596 2.549 9.91 2.763 16.848 2.743 5.313-.016 5.915-.066 17.651-1.487 9.214-1.116 14.67-.782 21.767 1.332 9.787 2.915 12.332 2.76 9.681-.591-3.855-4.871-11.757-7.387-29.958-9.536-12.467-1.472-16.661-2.822-18.239-5.874-2.125-4.109 5.576-9.743 14.686-10.745 4.73-.52 5.526-1.031 5.261-3.374-.522-4.614 3.282-9.466 9.876-12.598 2.511-1.192 3.315-1.223 5.549-.214 3.468 1.565 4.484 1.082 6.637-3.154 4.153-8.17 9.81-9.918 21.964-6.79 7.579 1.95 8.032 1.065 2.405-4.7-8.56-8.772-7.474-12.977 4.354-16.855 15.028-4.928 30.614-2.932 39.541 5.065 6.119 5.481 7.7 4.289 4.585-3.454-2.945-7.32-3.288-11.976-1.256-17.09 7.862-19.791 22.882-32.224 35.067-29.025m89.054 105.851c-13.088.997-29.062 4.62-36.744 8.335-3.377 1.633-3.683 2.343-1.765 4.096 4.306 3.936 14.322 3.732 37.567-.763 12.905-2.495 12.563-2.454 21.802-2.615 8.841-.153 9.146-.196 9.43-1.33.359-1.429-1.153-2.489-5.301-3.715-1.443-.426-2.432-.853-2.676-1.154-1.47-1.815-14.341-3.462-22.313-2.854m54.973 5.833c-3.874.686-11.043 6.841-15.41 13.23-4.45 6.512-14.428 9.108-23.173 6.028-6.052-2.131-6.367-.673-1.997 9.222 8.394 19.006 23.178 30.424 39.39 30.42 7.848-.002 12.176-1.403 20.783-6.73 13.599-8.416 19.063-8.643 34.608-1.434 3.754 1.741 3.72 1.733 3.72.865 0-3.639-16.463-16.501-22.352-17.463-3.276-.534-7.284.231-12.619 2.409-3.764 1.537-8.215 3.21-9.079 3.413l-.612.144-.076-2.808c-.075-2.79-.081-2.816-.942-4.225-2.251-3.679-6.36-6.863-7.169-5.555-.084.137-.026 1.762.13 3.611.465 5.499-.159 7.101-3.097 7.956-6.601 1.919-10.398-4.832-8.355-14.856 1.92-9.424 3.902-9.618 18.67-1.831 9.371 4.942 23.049 6.417 29.67 3.2 4.865-2.364 4.971-3.958.331-4.967-3.45-.749-7.621-3.113-17.13-9.709-13.232-9.178-19.6-11.927-25.291-10.92m-211.517 9.856c-3.188 3.575-4.36 5.668-5.243 9.361-.447 1.874-.561 2.105-1.132 2.304-.349.122-.636.253-.639.291-.002.038-.155.946-.34 2.017-.192 1.11-.439 5.006-.574 9.055-.424 12.679-2.059 17.638-7.892 23.93-3.032 3.271-3.121 3.792-.848 4.944 5.094 2.582 17.223-5.021 17.223-10.796 0-.86.088-1.034.665-1.333 1.205-.623 1.285-9.138.148-15.908-1.33-7.924-1.239-10.538.572-16.489.388-1.274 1.825-7.98 1.825-8.517 0-.179-1.394-1.168-1.632-1.157-.048.003-1.008 1.037-2.133 2.298m104.853 12.496c2.32.15 6.136.737 13.181 2.027 7.322 1.34 9.858 1.548 17.916 1.469 3.929-.039 7.229.016 7.335.121.265.263-.662.981-2.964 2.294-1.07.611-3.376 2.242-5.125 3.625-7.538 5.961-11.281 7.843-17.506 8.803-2.43.375-2.857.471-5.96 1.342-3.904 1.096-8.94 1.049-8.94-.084 0-.65 1.754-2.061 4.275-3.44 5.573-3.048 6.251-3.568 5.937-4.558-.276-.872-1.355-1.068-5.856-1.062-4.949.006-5.36.119-11.607 3.177-5.416 2.652-6.315 2.448-9.011-2.037-4.103-6.829-.33-11.195 10.188-11.792 3.146-.179 3.723-.171 8.137.115m49.513 17.622c-3.647.771-5.939 1.943-18.085 9.247-11.887 7.149-15.983 9.143-21.521 10.477-1.387.334-1.725.509-1.995 1.031-.266.514-.569.677-1.654.888-3.824.742-7.882 1.181-10.921 1.181-3.751 0-4.916.366-5.743 1.808-.572.995-2.101.079 14.211 8.52 16.228 8.398 14.927 7.489 22.479 15.717 11.661 12.705 16.847 16.244 23.802 16.244 5.204 0 8.387-1.641 15.129-7.797 8.908-8.134 15.725-11.21 24.871-11.221 10.295-.013 17.295 3.842 27.345 15.06l3.363 3.753 1.336.276c1.935.399 1.882.426 1.882-.954 0-3.42-1.371-6.472-5.472-12.18-14.464-20.136-26.725-24.39-46.104-15.997-8.496 3.68-14.551 4.915-20.8 4.241-6.445-.695-9.376-4.592-7.536-10.02 1.951-5.759 4.677-9.672 8.839-12.687 2.282-1.653 5.242-.561 11.385 4.202 3.84 2.977 6 4.184 10.222 5.709 11.972 4.324 19.671 4.431 28.893.402 1.547-.676 1.537-.682-3.33-2.299-13.03-4.327-15.856-5.93-27.444-15.57-10.779-8.968-16.486-11.441-23.152-10.031m-104.383 9.309c8.739 1.615 12.069 2.378 22.435 5.141 6.391 1.703 6.929 2.931 3.501 7.99-3.309 4.882-8.337 8.377-13.586 9.443-11.114 2.256-21.45.292-24.331-4.623-1.825-3.114-3.905-9.979-3.681-12.15.614-5.942 5.368-7.703 15.662-5.801m29.999 32.217c-5.232.736-9.551 2.934-11.777 5.994-.628.864-1.381 1.691-1.674 1.838s-1.41.666-2.483 1.154c-2.318 1.052-3.206 1.949-3.206 3.239 0 2.267 2.464 2.309 7.472.129 8.733-3.803 14.736-3.275 22.796 2.005 5.853 3.834 6.308 3.952 14.64 3.794l4.949-.094 2.521-.856c6.63-2.252 10.936-5.26 8.729-6.099-.305-.116-2.393-.583-4.641-1.039-7.458-1.511-8.989-1.986-17.956-5.566-9.321-3.722-15.193-5.085-19.37-4.499" fill="#B11F24" fill-rule="evenodd"/></svg>