<svg id="Layer_1" data-name="Layer 1" xmlns="http://www.w3.org/2000/svg" viewBox="0 -18 84 84"><defs><style>.cls-1{fill:#de1e2d}</style></defs><path class="cls-1" d="M19.82 22.59c1.64 0 2.87-.7 3.71-2.1l6.51-10.36c.8-1.33.42-2-1.15-2s-2.75.67-3.56 2l-6.51 10.36c-.83 1.34-.5 2.04 1 2.1"/><path class="cls-1" d="M79.2 22.74c-2.5 1.47-5.31 2.2-8.41 2.2h.2c3.1 0 5.03.72 5.78 2.15.75 1.44.29 3.49-1.38 6.16l-5.61 8.86c-.9 1.37-2.14 2.05-3.71 2.05H54.05c-1.64 0-2-.68-1.1-2.05l9.51-15.12c.87-1.37.55-2.05-.95-2.05-1.64 0-2.87.7-3.71 2.1l-9.26 15.02c-.94 1.4-2.17 2.1-3.71 2.1H32.76c-1.6 0-1.97-.7-1.1-2.1L53.01 7.82c.83-1.4 2.07-2.1 3.71-2.1h25.84c.87 0 1.64.08 2.32.21V0H0v23.8L9.95 7.82c.83-1.4 2.07-2.1 3.71-2.1H39.5q4.35 0 5.58 2.28c.82 1.52.43 3.53-1.18 6.03l-1.6 2.6c-1.6 2.6-3.66 4.64-6.16 6.11s-5.31 2.2-8.41 2.2h.2c3.1 0 5.03.72 5.78 2.15.75 1.44.29 3.49-1.38 6.16l-5.61 8.86c-.9 1.37-2.14 2.05-3.71 2.05H10.99c-1.64 0-2-.68-1.1-2.05l9.51-15.12c.87-1.37.55-2.05-.95-2.05-1.64 0-2.87.7-3.71 2.1L5.48 42.06c-.94 1.4-2.17 2.1-3.71 2.1H0v4.81h84.88V17.32c-1.53 2.26-3.41 4.08-5.68 5.41Zm1.45 17.74-1.91 3.06q-.405.63-1.11.63h-3.56q-.735 0-.33-.63l1.91-3.06q.375-.63 1.11-.63h3.56q.705 0 .33.63"/><path class="cls-1" d="m68.39 10.12-6.51 10.36c-.83 1.34-.5 2.04 1 2.1 1.64 0 2.87-.7 3.71-2.1l6.51-10.36c.8-1.33.42-2-1.15-2s-2.75.67-3.56 2"/></svg>