<svg data-name="Layer 1" xmlns="http://www.w3.org/2000/svg" viewBox="0 0 420.29 162.08"><path d="M420.29 0v162.08H0V0zM63.08 9.26c-16.62 1.77-30.7 13.43-35.24 29.51-7.3 25.84-10.28 54.78-16.71 81.01-1.02 15.06 9.46 26.23 24.41 26.83l323.77-.02c16.84-1.04 31.18-13.21 36.07-29.08 3.73-25.82 10.25-52.22 13.33-78.04 2-16.78-6.21-28.95-23.55-30.34l-322.07.14Z" style="fill:#fff"/><path d="m63.08 9.26 322.07-.14c17.34 1.39 25.55 13.56 23.55 30.34-3.07 25.82-9.6 52.22-13.33 78.04-4.88 15.87-19.23 28.04-36.07 29.08l-323.77.02c-14.95-.59-25.43-11.77-24.41-26.83 6.43-26.23 9.41-55.17 16.71-81.01 4.54-16.08 18.62-27.73 35.24-29.51ZM218.8 32.29C191.33 34 163.57 49.3 159.01 78.57c-6.28 40.39 35.08 47.92 65.75 41.13 13.14-2.91 31.23-12.03 37.36-24.61 1.94-3.98 4.1-8.35-2.11-8.9-4.04-.35-19.85-.57-23.18.29-3.11.8-3.49 4.04-5.25 6.27-12.15 15.46-48.93 11.91-43.91-14.51 3.96-20.83 28.41-31.82 47.49-23.61 2.68 1.15 4.36 2.75 5.07 5.66.48 1.98-.18 5.98 2.3 6.44 7.64-.64 16.77.9 24.23.02 4.21-.5 3.07-7.57 2.2-10.55-5.92-20.24-31.95-25.03-50.15-23.9Zm-85.45 3.59c-.86-.77-3.25-1.23-4.43-1.33-6.35-.55-18.73-.58-25.06 0-1.87.17-3.69.83-5.14 2.01-17.08 25.09-35.94 49.11-52.73 74.39-2.16 3.25-5.45 7.64 1.07 8.25 4.32.4 13.19.41 17.51 0 2.52-.24 3.39-1.14 4.88-3.06 2.07-2.68 7.57-13.34 10.28-13.95l37.85.12c4.36 4.28-.32 16.14 7.74 16.89 4.97.47 14.9.44 19.89 0 2.25-.2 3.85-.75 4.47-3.09l-14.73-76.85c-.25-.95-.89-2.74-1.59-3.37Zm223.58 64.23h-51.24c-.06 0-.73-.64-.81-.81-.3-.66 2.04-12.68 2.53-14.15.19-.56.24-1.22.86-1.53l41.93-.18c1.23-.1 3.61-.43 4.43-1.33 1.39-1.52 3.13-11.13 2.3-12.98-.23-.52-1.93-1.6-2.38-1.6h-42.11c-.11 0-.93-.41-1.01-.67-.34-1.4 1.46-11.33 2.37-12.27.21-.21.4-.42.7-.49l48.4-.06c3.44-.3 4.18-1.34 5.08-4.45.58-1.98 2.54-11.33 2.24-12.83-.19-.96-.76-1.26-1.65-1.53-25.53-.37-51.32-.59-76.82.11-2.86 1-3.01 3.74-3.63 6.3-5.66 23.44-8.53 48.26-13.98 71.83-.25 2.74-.14 4.52 2.72 5.53l76.79.1c1.48-.51 2.59-1.24 3.27-2.68.88-1.85 2.32-9.16 2.53-11.37s.2-4.43-2.53-4.92Z" style="fill:#166aaf"/><path d="M218.8 32.29c18.21-1.13 44.23 3.66 50.15 23.9.87 2.99 2.01 10.06-2.2 10.55-7.46.88-16.59-.66-24.23-.02-2.47-.46-1.81-4.46-2.3-6.44-.71-2.9-2.39-4.5-5.07-5.66-19.08-8.21-43.53 2.78-47.49 23.61-5.02 26.42 31.76 29.97 43.91 14.51 1.76-2.24 2.14-5.47 5.25-6.27 3.33-.86 19.14-.64 23.18-.29 6.21.54 4.05 4.92 2.11 8.9-6.13 12.58-24.22 21.7-37.36 24.61-30.67 6.79-72.04-.74-65.75-41.13 4.55-29.27 32.32-44.57 59.79-46.28Zm138.13 67.82c2.74.48 2.74 2.68 2.53 4.92s-1.65 9.52-2.53 11.37c-.68 1.44-1.8 2.18-3.27 2.68l-76.79-.1c-2.86-1.01-2.97-2.79-2.72-5.53 5.45-23.57 8.31-48.38 13.98-71.83.62-2.56.77-5.3 3.63-6.3 25.5-.71 51.29-.48 76.82-.11.89.27 1.46.58 1.65 1.53.3 1.51-1.67 10.86-2.24 12.83-.9 3.11-1.64 4.15-5.08 4.45l-48.4.06c-.3.08-.49.28-.7.49-.91.93-2.71 10.87-2.37 12.27.08.26.89.67 1.01.67h42.11c.45 0 2.14 1.07 2.38 1.6.83 1.85-.92 11.46-2.3 12.98-.82.89-3.2 1.23-4.43 1.33l-41.93.18c-.62.31-.67.97-.86 1.53-.49 1.48-2.83 13.5-2.53 14.15.08.17.75.81.81.81h51.24Z" style="fill:#fdfefe"/><path d="M133.35 35.88c.7.63 1.35 2.42 1.59 3.37l14.73 76.85c-.62 2.34-2.22 2.9-4.47 3.09-4.99.44-14.93.47-19.89 0-8.05-.76-3.37-12.62-7.74-16.89l-37.85-.12c-2.71.61-8.21 11.27-10.28 13.95-1.49 1.93-2.36 2.83-4.88 3.06-4.32.41-13.19.4-17.51 0-6.52-.61-3.22-5-1.07-8.25 16.79-25.28 35.64-49.3 52.73-74.39 1.45-1.17 3.28-1.84 5.14-2.01 6.33-.58 18.71-.54 25.06 0 1.18.1 3.57.56 4.43 1.33ZM91.57 84.61h23.44l.53-.66-4.4-28.24c-1.43-1.08-2.15.31-3.01 1.36-6.04 7.35-10.71 17.8-16.69 25.42l-.47 1.14.6.97Z" style="fill:#fdfdfe"/><path d="m91.57 84.61-.6-.97.47-1.14c5.98-7.62 10.64-18.07 16.69-25.42.86-1.05 1.58-2.44 3.01-1.36l4.4 28.24-.53.66H91.57Z" style="fill:#186aaf"/></svg>