<svg xmlns="http://www.w3.org/2000/svg" width="220" height="50"><path d="M192.033 509.418h13.221l-11.752 46.875H180.28zm19.497.535h13.222l-2.805 10.817h5.61l-2.004 8.013h-5.609l-4.14 16.96c-.534 1.87.401 2.805 2.538 2.671h2.27l-2.003 7.88c-2.671.267-5.209.4-7.48.4-4.006 0-6.81-.534-8.279-1.603-1.603-1.068-1.87-3.605-.801-7.345zm20.834 10.817h13.22l-8.813 35.523H223.55zm19.231 0h13.355l-5.876 23.504c-.802 2.805.133 4.274 2.537 4.274 2.671 0 4.274-1.47 5.075-4.274l5.875-23.504h13.221l-8.947 35.523h-13.22l1.067-4.273h-.134q-4.006 5.208-11.217 5.208c-3.071 0-5.476-.667-7.079-2.003-1.736-1.335-2.136-3.873-1.335-7.613zm92.415 1.068c-1.736-1.335-4.14-2.003-7.345-2.003-2.004 0-4.14.4-6.144 1.201-2.136.935-4.006 2.272-5.609 4.274-.267-1.736-1.202-3.205-2.537-4.14-1.335-.801-3.473-1.335-6.277-1.335-4.807 0-8.68 1.87-11.352 5.341h-.133l1.068-4.273h-13.355l-8.948 35.524H296.6l5.876-23.504c.801-2.805 2.404-4.274 4.941-4.14 2.538-.134 3.473 1.335 2.671 4.14l-5.876 23.504h13.221l5.877-23.504c.801-2.805 2.403-4.274 5.075-4.14 2.537-.134 3.472 1.335 2.67 4.14l-5.875 23.504h5.875c4.14 0 8.146-2.805 8.948-6.544l5.208-20.3c.801-3.738.401-6.275-1.201-7.745m-166.533 34.455-1.737-46.875h-7.88c-6.677.267-12.152 3.873-15.224 9.348l-20.165 37.527 15.224-.133 3.606-8.013h11.352l-.401 8.146zM155.174 539.2l9.081-19.498-1.069 19.498z" style="fill:#1a67bb;fill-opacity:1;fill-rule:evenodd;stroke:none" transform="translate(-134.491 -520.481)scale(1.0228)"/></svg>