<svg xmlns="http://www.w3.org/2000/svg" width="400" height="124.752" viewBox="0 0 400 124.752"><g fill-rule="evenodd"><path d="M73.667 3.333q0 .334-.334.334c-.276 0-.333.111-.333.647 0 .507-.072.666-.333.734-.284.074-.334.228-.334 1.02 0 .821-.039.932-.333.932-.278 0-.333.111-.333.667 0 .555-.056.666-.334.666-.292 0-.333.111-.333.898 0 .757-.052.91-.333.984-.253.066-.334.227-.334.667 0 .439-.08.6-.333.666-.262.069-.333.228-.333.744 0 .445-.108.754-.334.958-.219.199-.333.513-.333.923 0 .481-.075.641-.333.709-.251.065-.334.227-.334.649 0 .355-.122.666-.333.847-.242.207-.333.492-.333 1.037 0 .641-.05.752-.334.752-.277 0-.333.111-.333.666 0 .459-.072.667-.232.667-.308 0-.435.369-.435 1.264 0 .625-.05.736-.333.736-.276 0-.333.111-.333.647 0 .507-.073.666-.334.735-.277.072-.333.227-.333.916s-.056.845-.333.917c-.254.066-.334.227-.334.675 0 .441-.083.614-.333.693-.256.082-.333.253-.333.736q0 .629-.334.931c-.219.199-.333.513-.333.923 0 .481-.075.641-.333.709-.255.066-.334.227-.334.677 0 .374-.1.647-.272.743-.175.098-.301.453-.353.995-.062.643-.155.861-.395.923-.233.061-.313.235-.313.681q0 .597-.229.599c-.238 0-.438.693-.438 1.521 0 .315-.085.479-.25.479-.174 0-.25.176-.25.583 0 .408.076.584.25.584.175 0 .25.175.25.582 0 .401.104.646.334.79.183.114.333.368.333.564 0 .714.214 1.397.438 1.397q.228.002.229.599c0 .446.08.62.313.681.24.063.333.281.395.929.049.514.188.925.353 1.046.154.112.272.431.272.737 0 .399.087.562.333.626.258.068.334.228.334.709 0 .41.113.724.333.923.226.204.333.513.333.958 0 .516.072.675.334.744.261.068.333.227.333.734 0 .536.057.647.333.647.289 0 .334.111.334.828 0 .657.068.864.333 1.006.233.124.333.349.333.744 0 .42.087.594.334.672.275.088.333.253.333.944 0 .697.056.852.333.925.261.068.334.227.334.734 0 .536.057.647.333.647.284 0 .333.111.333.75 0 .528.099.849.334 1.084.206.206.333.555.333.916 0 .473.063.584.333.584.275 0 .334.111.334.626 0 .446.096.687.333.835.255.159.333.389.333.972 0 .624.061.781.334.852.261.068.333.227.333.734 0 .536.057.647.333.647.293 0 .334.111.334.906 0 .759.054.922.333 1.011.25.079.333.252.333.694 0 .447.08.608.334.674.277.073.333.228.333.917s.056.844.333.917c.261.068.334.227.334.734 0 .536.057.647.333.647.289 0 .333.111.333.832 0 .652.073.877.334 1.04.237.149.333.389.333.835 0 .424.075.627.231.627.135 0 .28.255.346.607.062.334.211.704.329.822.118.119.265.595.327 1.06.077.579.188.844.356.844.169 0 .244.184.244.599 0 .446.08.62.314.681.24.063.332.281.395.929.049.514.188.925.353 1.046.154.112.272.431.272.737 0 .399.086.562.333.626.243.064.334.229.336.61.003.773.173 1.272.433 1.272.158 0 .231.208.231.655 0 .509.074.679.333.762.245.077.334.252.334.655 0 .302.15.74.333.973.183.234.333.663.333.955 0 .391.088.554.334.618.261.069.333.228.333.735 0 .536.057.647.333.647.294 0 .334.111.334.932 0 .792.05.946.333 1.02.261.068.333.227.333.734 0 .536.058.647.334.647.288 0 .333.111.333.832 0 .652.072.877.333 1.04.226.141.334.389.334.767 0 .419.083.581.333.646.26.068.333.228.333.721 0 .796.137 1.161.435 1.161.136 0 .232.172.232.417v.416h14.739c9.174 0 14.901-.061 15.167-.162.543-.207.608-.988.094-1.123-.261-.068-.333-.227-.333-.734 0-.536-.058-.647-.334-.647-.277 0-.333-.111-.333-.667q0-.666-.333-1c-.21-.21-.334-.556-.334-.932 0-.459-.078-.62-.333-.686-.261-.069-.333-.228-.333-.735 0-.536-.058-.647-.334-.647s-.333-.111-.333-.653c0-.814-.135-1.18-.434-1.18-.16 0-.233-.207-.233-.656 0-.509-.074-.679-.333-.761-.25-.079-.333-.252-.333-.694 0-.447-.08-.608-.334-.674-.277-.073-.333-.228-.333-.917s-.056-.844-.333-.917c-.261-.068-.334-.227-.334-.734 0-.536-.057-.647-.333-.647-.278 0-.333-.111-.333-.667s-.056-.667-.334-.667c-.293 0-.333-.111-.333-.922 0-.665-.069-.948-.25-1.017-.137-.053-.25-.27-.25-.482 0-.558-.169-.912-.434-.912q-.233.001-.233-.599c0-.446-.08-.62-.313-.681-.24-.063-.333-.281-.395-.929-.049-.514-.188-.925-.353-1.046a.75.75 0 0 1-.272-.541c0-.519-.176-.871-.434-.871q-.232-.002-.233-.577c0-.407-.098-.63-.333-.756-.232-.124-.333-.349-.333-.742q0-1.092-.435-1.091c-.16 0-.232-.208-.232-.667 0-.556-.056-.667-.333-.667-.275 0-.334-.111-.334-.635 0-.405-.121-.765-.333-.993-.207-.222-.333-.588-.333-.964 0-.465-.077-.626-.334-.693-.261-.068-.333-.227-.333-.734 0-.536-.057-.647-.333-.647-.278 0-.334-.111-.334-.667q0-.666-.333-1c-.21-.21-.333-.556-.333-.932 0-.459-.078-.62-.334-.686-.261-.069-.333-.228-.333-.735 0-.536-.057-.647-.333-.647-.265 0-.334-.112-.336-.542-.003-.791-.171-1.291-.434-1.291-.157 0-.23-.209-.23-.656 0-.509-.075-.679-.334-.761-.25-.079-.333-.252-.333-.694 0-.447-.079-.608-.333-.674-.26-.068-.334-.228-.334-.721 0-.796-.136-1.161-.434-1.161-.16 0-.232-.208-.232-.667 0-.555-.056-.666-.334-.666-.277 0-.333-.111-.333-.667s-.056-.667-.333-.667c-.294 0-.334-.111-.334-.932 0-.792-.05-.945-.333-1.019-.261-.069-.333-.228-.333-.735 0-.536-.058-.647-.334-.647-.277 0-.333-.111-.333-.667 0-.555-.056-.666-.333-.666-.293 0-.334-.111-.334-.906 0-.759-.054-.922-.333-1.011-.259-.082-.333-.252-.333-.761 0-.545-.057-.656-.334-.656-.276 0-.333-.111-.333-.649 0-.393-.089-.683-.227-.735-.126-.049-.276-.463-.339-.935-.077-.582-.189-.847-.356-.847-.17 0-.245-.184-.245-.599 0-.459-.078-.62-.333-.686-.234-.062-.333-.228-.333-.56 0-.511-.312-1.322-.508-1.322-.067 0-.172-.338-.234-.75-.073-.489-.195-.75-.352-.75-.164 0-.24-.189-.24-.599 0-.459-.078-.619-.333-.686-.261-.068-.333-.227-.333-.734 0-.425-.115-.762-.334-.981-.183-.183-.333-.515-.333-.736 0-.576-.166-.931-.434-.931q-.233.001-.233-.599c0-.458-.078-.619-.333-.686-.261-.068-.333-.227-.333-.734 0-.425-.115-.762-.334-.981-.204-.204-.333-.555-.333-.905 0-.426-.085-.599-.333-.678-.251-.079-.334-.252-.334-.694 0-.447-.079-.608-.333-.674-.261-.069-.333-.228-.333-.735 0-.425-.115-.761-.334-.98-.206-.207-.333-.556-.333-.917 0-.472-.063-.583-.333-.583-.278 0-.334-.111-.334-.667s-.055-.667-.333-.667c-.283 0-.333-.111-.333-.736 0-.895-.127-1.264-.435-1.264-.16 0-.232-.208-.232-.666 0-.556-.056-.667-.333-.667-.278 0-.334-.111-.334-.667 0-.555-.055-.666-.333-.666-.292 0-.333-.111-.333-.906 0-.759-.054-.922-.334-1.011-.25-.079-.333-.252-.333-.694 0-.447-.079-.608-.333-.674-.257-.067-.334-.228-.334-.695 0-.426-.099-.669-.333-.815-.253-.158-.333-.389-.333-.957 0-.637-.05-.748-.334-.748-.277 0-.333-.111-.333-.667s-.056-.667-.333-.667c-.278 0-.334-.111-.334-.666q0-.667-.333-1-.333-.334-.333-1c0-.556-.056-.667-.334-.667-.277 0-.333-.111-.333-.667 0-.456-.073-.666-.231-.666-.126 0-.269-.15-.317-.334-.067-.255-.228-.333-.686-.333-.488 0-.599.062-.599.333m85.166 24.994c0 .319-.1.34-1.666.34-1.556 0-1.667.022-1.667.333 0 .295-.111.333-.969.333-.738 0-1.053.08-1.326.334-.222.206-.588.333-.964.333-.465 0-.626.077-.693.333-.068.261-.227.334-.734.334-.536 0-.647.057-.647.333 0 .271-.111.333-.599.333-.459 0-.62.078-.686.334-.048.183-.217.333-.376.333-.158 0-.423.15-.589.333s-.447.334-.625.334a.445.445 0 0 0-.41.333c-.049.184-.228.333-.401.333-.203 0-.314.118-.314.334q0 .333-.334.333-.333 0-.333.333 0 .334-.333.334c-.184 0-.484.15-.667.333s-.407.333-.498.333c-.09 0-.274.264-.409.586s-.361.63-.502.685c-.142.054-.258.24-.258.414 0 .173-.106.315-.236.315a.37.37 0 0 0-.32.209c-.046.114-.09-1.613-.097-3.838l-.013-4.046-.431-.163c-.27-.103-4.3-.148-10.792-.121l-10.361.043-.042 35.187-.042 35.188.521.104c.878.175 20.343.12 20.969-.06.314-.09.631-.258.705-.375s.135-9.867.137-21.669c.002-21.235.006-21.462.336-21.792.215-.215.333-.556.333-.96 0-.446.096-.686.333-.835.23-.143.334-.388.334-.788s.103-.646.333-.789c.183-.115.333-.335.333-.49s.15-.33.334-.388c.212-.067.333-.252.333-.51 0-.223.149-.497.333-.612s.334-.34.334-.501c0-.183.126-.294.333-.294q.333 0 .333-.333c0-.207.111-.333.294-.333.161 0 .386-.15.501-.334.121-.193.389-.333.639-.333.291 0 .459-.108.518-.333.048-.185.227-.334.401-.334.203 0 .314-.118.314-.333 0-.274.111-.333.627-.333.446 0 .686-.096.834-.334.171-.274.389-.333 1.223-.333.874 0 1.026-.046 1.101-.333.083-.318.227-.334 3.132-.334 2.904 0 3.048.016 3.131.334.073.277.228.333.917.333s.844.056.917.333c.066.256.227.334.686.334.488 0 .599.062.599.333q0 .333.333.333t.333.334q0 .333.334.333c.213 0 .333.111.333.308 0 .169.15.443.333.609s.334.447.334.624c0 .183.144.361.333.411.277.072.333.227.333.916 0 .676.059.845.318.913.276.072.324.275.375 1.579.046 1.214.113 1.528.349 1.66.275.154.292 1.384.292 22.16 0 20.793.016 22.004.291 22.117.574.235 21.67.142 21.909-.097.225-.226.434-45.436.215-46.658-.057-.319-.197-.542-.34-.542-.2 0-.242-.411-.242-2.403 0-2.534-.059-2.93-.434-2.93-.178 0-.233-.292-.233-1.244 0-1.074-.045-1.269-.333-1.423-.265-.142-.333-.349-.333-1.006 0-.605-.09-.917-.334-1.161-.219-.219-.333-.555-.333-.98 0-.507-.072-.666-.333-.735-.256-.066-.334-.227-.334-.686 0-.488-.062-.599-.333-.599-.278 0-.333-.111-.333-.666 0-.556-.056-.667-.334-.667-.241 0-.333-.111-.333-.403 0-.575-.166-.93-.434-.93-.128 0-.233-.15-.233-.334q0-.333-.333-.333t-.333-.333q0-.334-.334-.334-.333 0-.333-.333t-.333-.333q-.334 0-.334-.334 0-.333-.333-.333t-.333-.333q0-.334-.334-.334-.333 0-.333-.333t-.333-.333q-.334 0-.334-.334c0-.207-.111-.333-.293-.333-.161 0-.387-.15-.501-.333-.133-.213-.389-.334-.707-.334-.388 0-.499-.074-.499-.333 0-.278-.111-.333-.666-.333-.556 0-.667-.056-.667-.334 0-.277-.111-.333-.667-.333-.456 0-.666-.073-.666-.231 0-.271-.505-.43-1.375-.433-.42-.002-.625-.078-.625-.233 0-.314-.528-.431-1.95-.434-.969-.002-1.232-.059-1.364-.294-.275-.493-11.02-.54-11.02-.048m65.382.006c-.081.309-.227.334-2 .334s-1.919.024-2 .333c-.077.296-.227.333-1.333.333s-1.256.038-1.334.334c-.073.282-.227.333-1 .333-.772 0-.926.051-1 .333-.067.258-.227.334-.708.334-.41 0-.724.113-.923.333-.186.205-.514.333-.854.333-.381 0-.606.103-.73.334q-.178.332-.688.333c-.369 0-.534.092-.597.333a.445.445 0 0 1-.416.334.444.444 0 0 0-.417.333c-.066.25-.227.333-.651.333-.453 0-.564.066-.564.334q0 .333-.333.333-.334 0-.334.333c0 .259-.111.334-.498.334-.318 0-.574.12-.707.333-.115.183-.34.333-.501.333-.183 0-.294.127-.294.334q0 .333-.333.333t-.333.333q0 .334-.334.334c-.215 0-.333.111-.333.314 0 .173-.149.352-.333.401-.256.066-.334.227-.334.686 0 .488-.062.599-.333.599q-.333 0-.333.333t-.334.333c-.257 0-.333.111-.333.489 0 .342-.1.521-.333.595-.213.067-.334.252-.334.511 0 .235-.097.405-.232.405-.298 0-.434.366-.434 1.161 0 .494-.074.653-.334.721-.282.074-.333.227-.333 1s-.051.926-.333 1c-.325.085-.334.227-.334 5.353 0 5.043.014 5.279.334 5.599.252.252.333.555.333 1.25 0 .805.04.916.333.916.278 0 .334.111.334.667s.055.667.333.667.333.111.333.666c0 .556.056.667.334.667.258 0 .333.111.333.494 0 .324.115.556.333.673.184.098.334.325.334.506q.001.325.333.327.333 0 .333.333 0 .334.334.334.333 0 .333.333t.333.333q.334 0 .334.334 0 .333.333.333c.184 0 .333.111.333.248 0 .161.236.286.667.355.502.08.667.183.667.418 0 .201.118.312.333.312.183 0 .333.105.333.233 0 .253.35.434.841.434.173 0 .395.15.493.333.111.208.349.334.632.334.274 0 .537.132.662.333.132.211.389.333.699.333.28 0 .555.117.642.273.099.176.455.301 1.009.354.536.052.856.161.856.293 0 .287.386.414 1.263.414.544 0 .737.065.737.25 0 .201.259.25 1.333.25 1.222 0 1.333.027 1.333.333s.111.333 1.334.333c1.222 0 1.333.028 1.333.334 0 .305.111.333 1.314.333 1.174 0 1.323.036 1.401.333.079.303.227.334 1.591.334 1.358 0 1.515.032 1.611.333.093.294.252.333 1.36.333 1.114 0 1.264.038 1.341.334.078.295.228.333 1.318.333 1.008 0 1.291.06 1.564.333.259.26.556.334 1.333.334.889 0 1 .037 1 .333 0 .278.111.333.667.333s.667.056.667.334c0 .277.111.333.666.333.556 0 .667.056.667.333q0 .334.333.334c.259 0 .334.111.334.494 0 .323.115.556.333.672.299.16.333.349.333 1.82 0 1.501-.028 1.649-.333 1.729-.183.048-.333.206-.333.352 0 .343-.59.933-.933.933-.146 0-.304.15-.352.333-.049.184-.228.333-.401.333-.203 0-.314.118-.314.334 0 .293-.111.333-.933.333-.792 0-.945.05-1.019.333-.081.308-.227.334-1.917.334s-1.836.025-1.916.333c-.076.289-.228.333-1.132.333s-1.056-.044-1.132-.333c-.083-.317-.227-.333-3-.333-2.772 0-2.917-.016-3-.334-.079-.302-.227-.333-1.583-.333s-1.504-.031-1.583-.333c-.078-.297-.228-.334-1.353-.334-1.155 0-1.266-.029-1.266-.333 0-.289-.111-.333-.832-.333-.651 0-.877-.073-1.04-.334-.146-.234-.388-.333-.815-.333-.467 0-.627-.077-.694-.333-.074-.284-.228-.334-1.02-.334-.821 0-.932-.039-.932-.333 0-.278-.111-.333-.667-.333-.555 0-.666-.056-.666-.334 0-.277-.111-.333-.667-.333s-.667-.056-.667-.333c0-.268-.111-.334-.564-.334-.423 0-.585-.083-.651-.333a.44.44 0 0 0-.436-.333c-.194 0-.349-.108-.349-.243 0-.144-.233-.286-.577-.351-.358-.067-.616-.228-.678-.424-.087-.273-.27-.316-1.339-.316H203v.627c0 .446-.096.686-.333.835-.261.163-.334.388-.334 1.04 0 .721-.044.832-.333.832s-.333.111-.333.832c0 .651-.073.877-.334 1.04-.234.146-.333.388-.333.815 0 .467-.077.627-.333.694-.284.074-.334.228-.334 1.02 0 .821-.039.932-.333.932-.278 0-.333.111-.333.667 0 .458-.073.666-.233.666-.298 0-.434.366-.434 1.169 0 .496-.076.666-.333.748-.275.087-.334.252-.334.944 0 .703-.054.851-.341.926-.3.079-.335.201-.291 1.026l.049.937.625.052c.49.041.625.122.625.375 0 .206.114.323.314.323.174 0 .353.149.401.334.067.255.227.333.686.333.488 0 .599.062.599.333 0 .278.111.334.667.334.555 0 .666.055.666.333s.111.333.667.333.667.056.667.334c0 .276.111.333.647.333.507 0 .666.072.734.333.067.257.228.334.693.334.376 0 .742.126.964.333.228.212.588.333.993.333.43 0 .635.075.635.231 0 .265.502.43 1.315.434.334.001.649.116.77.281.142.195.525.301 1.268.35q1.064.07 1.272.336c.155.197.598.284 1.709.337 1.058.051 1.5.134 1.5.282 0 .312.567.411 2.366.414 1.365.002 1.643.047 1.78.294.276.494 16.355.54 16.846.049.286-.286.554-.341 1.654-.341 1.585 0 2.354-.137 2.354-.419 0-.143.377-.231 1.185-.277.818-.046 1.243-.147 1.375-.326.106-.145.553-.3 1.013-.352.473-.053.906-.206 1.018-.359.11-.15.432-.267.734-.267.399 0 .562-.087.626-.333.069-.261.228-.334.735-.334.536 0 .647-.057.647-.333 0-.278.111-.333.667-.333.555 0 .666-.056.666-.334 0-.244.111-.333.417-.333.229 0 .567-.15.75-.333s.446-.334.583-.334c.139 0 .25-.148.25-.333 0-.207.111-.333.294-.333.161 0 .386-.15.501-.334.114-.183.355-.333.534-.333s.407-.15.505-.333.283-.334.411-.334.28-.15.339-.333.213-.333.344-.333c.132 0 .239-.11.239-.244 0-.135.147-.323.326-.419.182-.097.375-.432.435-.756.079-.42.197-.581.424-.581.204 0 .315-.118.315-.334 0-.183.104-.333.232-.333.269 0 .435-.355.435-.93 0-.292.092-.403.333-.403.278 0 .333-.111.333-.667 0-.481.07-.667.25-.667.181 0 .25-.185.25-.666 0-.556.056-.667.334-.667.305 0 .333-.111.333-1.333 0-1.223.028-1.334.333-1.334.325 0 .334-.111.334-4.515 0-4.376-.011-4.519-.334-4.603-.295-.077-.333-.227-.333-1.307 0-1.072-.04-1.232-.333-1.325-.28-.088-.334-.252-.334-1.011 0-.669-.061-.905-.235-.905-.145 0-.279-.257-.348-.667-.064-.377-.207-.667-.329-.667-.118 0-.255-.15-.303-.333s-.2-.333-.338-.333c-.163 0-.29-.234-.363-.667-.066-.391-.205-.667-.337-.667-.123 0-.272-.15-.33-.333s-.204-.333-.325-.333-.259-.15-.307-.334c-.048-.183-.206-.333-.352-.333a.267.267 0 0 1-.266-.266c0-.146-.148-.304-.328-.351a.68.68 0 0 1-.428-.401c-.072-.229-.257-.315-.672-.315-.461 0-.572-.065-.572-.334 0-.215-.111-.333-.314-.333-.174 0-.353-.149-.401-.333-.067-.256-.227-.334-.686-.334-.488 0-.599-.062-.599-.333 0-.259-.111-.333-.499-.333-.318 0-.574-.121-.706-.334-.127-.202-.389-.333-.667-.333s-.54-.131-.667-.333c-.146-.235-.388-.334-.815-.334-.467 0-.627-.077-.694-.333-.074-.283-.228-.333-1.02-.333-.821 0-.932-.04-.932-.334s-.111-.333-.981-.333c-.84 0-.993-.048-1.067-.333-.077-.294-.228-.334-1.264-.334-1.006 0-1.202-.048-1.355-.333-.152-.284-.349-.333-1.331-.333-.918 0-1.185-.059-1.313-.288-.125-.223-.446-.302-1.425-.352-.875-.044-1.264-.128-1.264-.274 0-.269-.754-.42-2.104-.42-.794 0-1.063-.058-1.063-.23 0-.299-.519-.431-1.708-.434-.708-.002-.958-.063-.958-.235 0-.17-.36-.264-1.334-.351-.973-.086-1.333-.18-1.333-.35 0-.171-.241-.233-.897-.233-.757 0-.911-.052-.985-.333-.066-.256-.227-.334-.686-.334-.488 0-.599-.062-.599-.333 0-.227-.111-.333-.349-.333a.444.444 0 0 1-.436-.334c-.048-.183-.182-.333-.298-.333s-.25-.15-.298-.333-.197-.334-.332-.334c-.304 0-.442-1.207-.324-2.846.061-.862.144-1.154.325-1.154.134 0 .283-.15.331-.333s.186-.333.306-.333c.121 0 .265-.142.32-.316a.68.68 0 0 1 .428-.401c.18-.047.327-.205.327-.351 0-.192.161-.266.584-.266.472 0 .583-.063.583-.333 0-.278.111-.333.667-.333q.666 0 1-.334c.318-.318.555-.333 5.333-.333 4.889 0 5 .007 5 .333 0 .306.111.334 1.333.334 1.223 0 1.334.027 1.334.333 0 .296.111.333 1 .333s1 .037 1 .334c0 .277.111.333.666.333q.667 0 1 .333c.202.202.556.334.898.334.423 0 .585.083.651.333.066.253.227.333.666.333s.601.081.667.334c.066.252.227.333.667.333.439 0 .6.081.666.333.067.256.228.334.686.334.488 0 .599.062.599.333 0 .185.111.333.25.333.138 0 .4.15.584.334.183.183.521.333.75.333.262 0 .416.094.416.254 0 .14.18.323.4.406.219.083.43.245.468.358.137.414 1.708.287 1.769-.143.029-.206.152-.375.272-.375.25 0 .419-.509.422-1.272.002-.381.093-.546.336-.61.254-.066.333-.227.333-.677 0-.374.101-.647.273-.743.175-.098.301-.453.353-.995.062-.643.155-.861.394-.923.226-.059.314-.234.314-.621 0-.306.117-.625.271-.738.165-.12.304-.531.354-1.045.062-.649.155-.867.395-.929.225-.059.313-.234.313-.621 0-.306.118-.625.272-.738.165-.121.304-.532.353-1.046.062-.648.155-.866.395-.929.272-.071.313-.248.313-1.334 0-1.618-.069-1.779-.767-1.779-.455 0-.566-.065-.566-.333 0-.219-.111-.334-.322-.334-.177 0-.37-.15-.428-.333-.079-.248-.252-.333-.678-.333-.461 0-.572-.065-.572-.334 0-.277-.111-.333-.667-.333-.555 0-.666-.056-.666-.333 0-.245-.111-.334-.417-.334-.245 0-.417-.095-.417-.232 0-.3-.366-.434-1.18-.434-.542 0-.653-.057-.653-.334s-.111-.333-.667-.333c-.555 0-.666-.056-.666-.333s-.111-.334-.659-.334c-.436 0-.71-.092-.81-.272-.098-.175-.453-.301-.995-.353-.643-.062-.861-.155-.923-.395-.071-.272-.249-.313-1.348-.313-1.154 0-1.265-.029-1.265-.333s-.111-.334-1.239-.334c-1.092 0-1.251-.039-1.345-.333-.097-.308-.252-.333-2.011-.333-1.517 0-1.905-.048-1.905-.233 0-.406-.413-.434-6.446-.434-5.779 0-5.921.008-6.006.333m140.952-.215a.9.9 0 0 0-.384.323c-.099.168-.603.226-1.974.226-1.7 0-1.847.025-1.927.333-.076.289-.228.333-1.138.333-1.2 0-1.577.104-1.577.435 0 .163-.218.232-.737.232-.894 0-1.263.127-1.263.434 0 .16-.208.233-.667.233-.556 0-.667.055-.667.333s-.111.333-.666.333c-.556 0-.667.056-.667.334 0 .277-.111.333-.667.333-.555 0-.666.056-.666.333 0 .278-.111.334-.667.334s-.667.055-.667.333q0 .334-.335.333c-.184 0-.463.15-.62.334-.157.183-.456.333-.665.333-.269 0-.38.098-.38.333q0 .334-.333.334t-.333.333-.334.333-.333.334q0 .333-.333.333-.334 0-.334.333 0 .334-.333.334t-.333.333-.334.333-.333.334q0 .333-.333.333c-.216 0-.334.111-.334.314 0 .174-.149.353-.333.401-.183.048-.333.21-.333.36s-.15.433-.334.63c-.183.197-.333.494-.333.66s-.104.302-.231.302c-.134 0-.279.251-.343.592-.061.325-.215.632-.342.68-.134.052-.277.463-.343.992q-.112.903-.344.902c-.174 0-.23.284-.23 1.166 0 .984-.052 1.197-.334 1.373-.319.199-.333.389-.333 4.418 0 4.099.009 4.21.333 4.21.306 0 .334.111.334 1.333 0 1.035.052 1.334.234 1.334.155 0 .273.281.348.825.062.453.219.913.349 1.02.129.108.237.28.239.383.002.104.15.376.33.605.179.229.327.555.329.724s.154.346.337.394.334.216.334.372c0 .157.187.461.416.677.23.215.417.485.417.601s.15.257.333.315c.184.059.334.214.334.345s.064.239.142.239.345.187.592.416c.247.23.596.417.774.417.214 0 .325.114.325.333 0 .216.111.334.314.334.174 0 .353.149.401.333.064.245.227.333.618.333s.555.088.619.334c.048.183.22.333.383.333s.338.108.388.241c.051.132.359.291.685.352.332.062.592.21.592.336 0 .146.303.266.856.34.515.068.961.236 1.12.422.158.184.485.309.811.309.352 0 .546.081.546.229 0 .236.692.438 1.503.438.257 0 .504.111.558.25.073.191.389.25 1.351.25 1.144 0 1.255.029 1.255.333 0 .305.111.333 1.314.333 1.174 0 1.323.036 1.401.334.079.302.227.333 1.603.333 1.404 0 1.515.024 1.515.333 0 .305.111.334 1.314.334 1.174 0 1.323.035 1.401.333.079.301.228.333 1.518.333 1.251 0 1.457.042 1.639.334.179.286.389.333 1.502.333 1.182 0 1.293.029 1.293.333 0 .297.111.334 1 .334s1 .037 1 .333c0 .276.111.333.647.333.507 0 .666.073.735.334.062.239.227.333.583.333s.521.094.583.333c.048.184.198.334.334.334.135 0 .285.15.333.333s.207.333.353.333c.193 0 .265.162.265.599 0 .459.078.62.334.686.285.075.333.228.333 1.068 0 .87-.038.981-.333.981-.278 0-.334.111-.334.666 0 .556-.055.667-.333.667q-.333 0-.333.333 0 .334-.334.334-.333 0-.333.333c0 .269-.111.333-.572.333-.426 0-.599.086-.678.334s-.252.333-.676.333c-.391 0-.637.105-.779.333-.188.3-.389.334-2.002.334-1.682 0-1.793.02-1.793.333 0 .305-.111.333-1.314.333-1.174 0-1.323-.035-1.401-.333-.083-.317-.227-.333-3.019-.333-2.822 0-2.933-.013-2.933-.334 0-.311-.111-.333-1.666-.333-1.556 0-1.667-.022-1.667-.333 0-.297-.111-.334-1-.334-.744 0-1-.059-1-.232 0-.306-.368-.434-1.244-.434-.577 0-.734-.066-.804-.334-.073-.277-.228-.333-.917-.333s-.844-.056-.917-.333c-.066-.255-.227-.334-.68-.334-.422 0-.644-.096-.771-.333-.133-.247-.349-.333-.838-.333-.479 0-.716-.092-.868-.334-.114-.183-.34-.333-.501-.333s-.443-.15-.627-.333c-.183-.184-.466-.334-.629-.334s-.425-.15-.582-.333-.474-.333-.704-.333c-.307 0-.418-.089-.418-.334 0-.277-.111-.333-.667-.333-.555 0-.666-.056-.666-.333 0-.297-.111-.334-1-.334-.869 0-1 .042-1 .314 0 .174-.149.353-.334.401-.246.065-.333.228-.333.626 0 .297-.114.623-.253.724-.14.103-.299.575-.357 1.06-.062.527-.185.875-.309.875-.113 0-.251.291-.308.645s-.217.739-.355.854c-.161.134-.251.5-.251 1.022 0 .702-.046.813-.334.813-.296 0-.333.111-.333 1s-.037 1-.333 1c-.278 0-.334.111-.334.666 0 .556-.055.667-.333.667-.292 0-.333.111-.333.897 0 .757-.052.911-.334.985-.265.069-.333.227-.333.769 0 .492-.069.682-.247.682-.771 0-.468 1.612.332 1.762.421.079.582.196.582.424 0 .256.124.314.666.314.556 0 .667.056.667.334 0 .215.111.333.314.333.174 0 .353.149.401.333.066.253.227.334.667.334.439 0 .6.08.666.333.064.245.228.333.619.333s.554.088.618.334c.068.261.227.333.734.333.44 0 .648.074.648.231 0 .26.498.43 1.272.433.381.002.546.093.609.336.074.282.228.333 1 .333.773 0 .927.052 1 .334.074.282.228.333 1 .333.773 0 .927.051 1 .333.075.284.228.334 1.035.334.695 0 1.061.088 1.372.333.336.265.676.333 1.651.333.93 0 1.227.056 1.227.23 0 .316.752.437 2.711.437 1.397 0 1.704.048 1.883.292.198.271.799.291 8.49.291s8.292-.02 8.49-.291c.172-.236.469-.292 1.556-.292 1.487 0 1.87-.089 1.87-.434 0-.172.252-.233.959-.235 1.188-.003 1.708-.135 1.708-.434 0-.161.221-.23.736-.23.877 0 1.264-.127 1.264-.413 0-.127.31-.246.782-.299.437-.049.867-.205.976-.355.108-.147.357-.267.554-.267s.486-.15.643-.333.416-.333.576-.333.371-.15.469-.334c.117-.218.349-.333.673-.333.373 0 .494-.077.494-.315 0-.226.159-.345.567-.421.312-.059.61-.217.661-.352s.247-.245.433-.245q.34.001.339-.334 0-.333.333-.333t.333-.333q0-.334.334-.334.333 0 .333-.333t.333-.333.334-.334q0-.333.333-.333t.333-.333q0-.334.334-.334c.244 0 .333-.111.333-.416 0-.254.095-.417.242-.417.146 0 .287-.234.352-.583.08-.422.197-.584.425-.584.256 0 .314-.124.314-.666 0-.556.056-.667.334-.667.276 0 .333-.111.333-.647 0-.507.072-.666.333-.735.284-.074.334-.227.334-1.019 0-.513.075-.932.166-.932.108 0 .167-2.056.167-5.834S399.941 73 399.833 73c-.092 0-.166-.444-.166-1 0-.889-.037-1-.334-1-.277 0-.333-.111-.333-.667q0-.666-.333-1c-.184-.183-.334-.483-.334-.666q0-.334-.333-.334c-.278 0-.333-.111-.333-.666 0-.556-.056-.667-.334-.667q-.333 0-.333-.333 0-.334-.333-.334-.334 0-.334-.333t-.333-.333-.333-.334q0-.333-.334-.333-.333 0-.333-.333 0-.334-.333-.334-.334 0-.334-.333c0-.215-.111-.333-.314-.333-.173 0-.352-.149-.401-.334-.066-.255-.227-.333-.686-.333-.488 0-.599-.062-.599-.333 0-.216-.111-.334-.314-.334-.173 0-.352-.149-.401-.333-.066-.253-.227-.333-.666-.333s-.601-.081-.667-.334c-.066-.252-.227-.333-.667-.333-.439 0-.6-.081-.666-.333-.071-.272-.228-.334-.847-.334-.589 0-.8-.075-.938-.333-.133-.247-.349-.333-.84-.333-.451 0-.66-.073-.66-.231 0-.292-.516-.431-1.606-.434-.714-.002-.87-.057-.943-.335-.074-.284-.227-.334-1.019-.334-.71 0-1.012-.079-1.266-.333-.277-.277-.555-.333-1.647-.333-1.174 0-1.323-.036-1.401-.334-.077-.296-.227-.333-1.353-.333-.966 0-1.265-.054-1.265-.231 0-.304-.523-.431-1.792-.433-.573-.002-1.042-.066-1.042-.143 0-.285-.881-.526-1.924-.526-.8 0-1.076-.059-1.076-.229 0-.156-.324-.265-1.022-.344-.563-.064-1.131-.223-1.262-.355-.134-.134-.556-.239-.958-.239-.579 0-.736-.065-.806-.333-.065-.25-.227-.334-.646-.334-.378 0-.626-.107-.767-.333-.133-.213-.389-.333-.707-.333-.387 0-.498-.075-.498-.334q0-.333-.334-.333-.333 0-.333-.333 0-.334-.333-.334c-.311 0-.334-.111-.334-1.647 0-1.507.029-1.655.334-1.734.255-.067.333-.228.333-.686 0-.488.062-.599.333-.599q.334 0 .334-.334 0-.333.333-.333t.333-.333c0-.278.111-.334.667-.334s.667-.055.667-.333c0-.294.111-.333.932-.333.792 0 .945-.05 1.019-.334.085-.324.228-.333 5.068-.333 4.87 0 4.981.007 4.981.333 0 .304.111.334 1.238.334 1.093 0 1.252.039 1.345.333.089.279.252.333 1.005.333.729 0 .934.064 1.078.334.142.264.349.333 1.006.333.717 0 .828.045.828.333 0 .276.111.334.647.334.507 0 .666.072.734.333.067.255.228.333.686.333q.6 0 .599.233c0 .265.354.434.911.434.244 0 .416.122.471.333.067.256.227.334.686.334.488 0 .599.062.599.333 0 .278.111.333.667.333.555 0 .666.056.666.334q0 .333.334.333c.183 0 .333.104.333.232 0 .269.355.435.93.435.3 0 .403.09.403.355 0 .323.069.347.771.268.895-.101 1.057-.288 1.06-1.229.002-.547.071-.707.336-.776s.333-.227.333-.769c0-.472.072-.683.233-.683.299 0 .434-.366.434-1.18 0-.542.057-.653.333-.653.275 0 .334-.111.334-.63 0-.423.109-.723.333-.915.242-.207.333-.491.333-1.037 0-.64.05-.751.334-.751.277 0 .333-.111.333-.659 0-.436.092-.71.272-.81.176-.099.302-.455.355-1.009.067-.696.14-.856.394-.856.25 0 .312-.125.312-.629 0-.424.11-.723.334-.915.23-.198.333-.492.333-.954 0-.557-.055-.668-.333-.668q-.334 0-.334-.334c0-.215-.111-.333-.314-.333-.173 0-.352-.149-.401-.333-.066-.256-.227-.334-.686-.334-.488 0-.599-.062-.599-.333 0-.185-.111-.333-.25-.333-.137 0-.4-.15-.583-.334-.183-.183-.512-.333-.731-.333-.257 0-.428-.118-.484-.333-.067-.256-.227-.334-.686-.334-.488 0-.599-.062-.599-.333 0-.276-.111-.333-.647-.333-.507 0-.666-.073-.735-.334-.063-.242-.227-.333-.602-.333-.294 0-.66-.144-.849-.333-.221-.221-.556-.334-.989-.334-.509 0-.679-.074-.761-.333-.089-.278-.253-.333-.992-.333-.746 0-.9-.053-.973-.334-.074-.281-.228-.333-.98-.333-.711 0-.934-.067-1.1-.333-.176-.282-.389-.334-1.365-.334-.929 0-1.189-.057-1.32-.291-.137-.244-.457-.301-1.967-.345-1.451-.043-1.845-.108-2.019-.333-.217-.284-11.854-.512-12.534-.246M263.458 30.18c-.357.208-.383.795-.041.926.164.063.25.324.25.761 0 .524.07.683.333.751.258.068.333.228.333.709 0 .41.114.724.334.923q.332.302.333.931c0 .483.077.654.333.736.251.079.334.252.334.693 0 .448.079.609.333.675.277.072.333.227.333.917 0 .689.057.844.334.916.261.069.333.228.333.735 0 .536.057.647.333.647.294 0 .334.111.334.932 0 .792.05.946.333 1.02.261.068.333.227.333.734 0 .536.058.647.334.647.288 0 .333.111.333.828 0 .657.069.864.333 1.006.248.132.334.349.334.839 0 .55.056.661.333.661.274 0 .333.111.333.626 0 .446.096.687.334.835.254.159.333.389.333.972 0 .624.061.781.333.852.261.068.334.227.334.734 0 .536.057.647.333.647.293 0 .333.111.333.917s.041.917.334.917c.277 0 .333.111.333.666 0 .556.056.667.333.667.294 0 .334.111.334.932 0 .792.05.946.333 1.02.261.068.333.227.333.734 0 .536.058.647.334.647.289 0 .333.111.333.839 0 .579.075.867.242.931.133.052.291.423.352.828.07.463.196.736.342.736.152 0 .231.196.231.577 0 .393.099.631.311.744.211.113.339.419.399.954.05.443.206.873.356.983s.267.432.267.734c0 .399.087.562.333.626.243.064.334.228.336.609.003.774.173 1.273.434 1.273.157 0 .23.208.23.655 0 .509.075.679.334.761.206.066.333.253.333.491 0 .74.21 1.426.438 1.426.156 0 .229.212.229.667 0 .555.055.666.333.666s.333.111.333.667q0 .666.334 1c.209.21.333.556.333.932 0 .459.078.62.333.686.261.069.334.228.334.735 0 .536.057.647.333.647.294 0 .333.111.333.932 0 .792.05.946.334 1.02.261.068.333.227.333.734 0 .536.057.647.333.647.29 0 .334.111.334.849 0 .709.055.864.333.936.26.068.333.228.333.724 0 .489.077.66.334.741.257.082.333.253.333.748 0 .803.136 1.169.434 1.169.16 0 .233.208.233.667 0 .555.055.666.333.666s.333.111.333.667q0 .666.334 1 .333.334.333 1c0 .556.056.667.333.667.278 0 .334.111.334.666 0 .556.055.667.333.667.294 0 .333.111.333.932 0 .792.05.946.334 1.02.261.068.333.227.333.734 0 .536.057.647.333.647q.334 0 .334.334 0 .333-.334.333c-.277 0-.333.111-.333.667 0 .555-.056.666-.333.666-.278 0-.334.111-.334.667q0 .666-.333 1t-.333 1c0 .556-.056.667-.334.667-.276 0-.333.111-.333.647 0 .507-.072.666-.333.734-.277.073-.334.228-.334.917s-.056.844-.333.917c-.257.067-.333.227-.333.701 0 .475-.076.635-.334.702-.281.074-.333.227-.333.984 0 .787-.041.898-.333.898-.276 0-.334.111-.334.647 0 .507-.072.666-.333.734-.272.071-.333.228-.333.852 0 .583-.079.813-.334.972-.237.148-.333.389-.333.835 0 .515-.059.626-.333.626-.277 0-.334.111-.334.659 0 .436-.092.71-.272.81-.176.099-.301.455-.355 1.009-.066.696-.14.856-.394.856-.253 0-.312.126-.312.666 0 .457-.073.667-.231.667-.261 0-.43.499-.433 1.28-.002.383-.095.56-.336.637-.247.078-.333.252-.333.672 0 .395-.101.62-.334.744-.263.141-.333.349-.333.987 0 .668-.058.823-.333.895-.256.067-.334.227-.334.686q.001.6-.232.599-.435-.002-.434 1.097v.57h10.916c7.167 0 10.917-.058 10.917-.167 0-.092.15-.317.333-.5q.334-.334.334-1c0-.556.055-.667.333-.667.27 0 .333-.111.333-.583 0-.361.127-.71.334-.917.234-.234.333-.555.333-1.083 0-.639.049-.75.333-.75.278 0 .334-.111.334-.667 0-.458.072-.666.232-.666.298 0 .434-.366.434-1.161 0-.494.074-.653.334-.721.254-.067.333-.227.333-.68 0-.423.096-.645.333-.772.257-.137.334-.349.334-.916s.077-.78.333-.917c.235-.126.333-.349.333-.756q.001-.575.233-.577c.272 0 .434-.356.434-.954 0-.234.12-.514.267-.621.148-.109.305-.537.353-.963.064-.567.169-.789.4-.849.225-.059.313-.234.313-.621 0-.306.118-.625.272-.738.166-.121.304-.533.355-1.06.055-.579.157-.861.311-.861.156 0 .229-.213.229-.667 0-.555.056-.666.333-.666.292 0 .334-.111.334-.898 0-.757.052-.91.333-.984.254-.066.333-.227.333-.675 0-.441.083-.614.334-.693.254-.081.333-.253.333-.725q0-.618.333-.903c.228-.195.334-.492.334-.935 0-.508.072-.667.333-.736.263-.068.333-.227.333-.75 0-.522.071-.681.334-.75.278-.072.333-.227.333-.936 0-.738.044-.849.333-.849.276 0 .334-.111.334-.647 0-.507.072-.666.333-.734.283-.074.333-.228.333-1.02 0-.821.04-.932.334-.932.277 0 .333-.111.333-.667 0-.555.056-.666.333-.666.289 0 .334-.111.334-.832 0-.652.072-.877.333-1.04.226-.141.333-.389.333-.767 0-.419.084-.581.334-.646s.333-.228.333-.651c0-.342.131-.696.333-.898.219-.219.334-.555.334-.98 0-.507.072-.666.333-.735.265-.069.333-.227.333-.769 0-.472.072-.682.233-.682.297 0 .434-.366.434-1.161 0-.494.074-.653.333-.721.25-.065.334-.227.334-.646 0-.378.107-.626.333-.767.261-.163.333-.389.333-1.04 0-.721.045-.832.334-.832.277 0 .333-.111.333-.667 0-.458.072-.666.232-.666q.436.002.435-1.096c0-.388.106-.634.333-.776.237-.149.333-.389.333-.835 0-.425.075-.627.233-.627.257 0 .434-.351.434-.862 0-.184.15-.526.333-.759s.334-.658.334-.944c0-.341.115-.593.333-.729.23-.144.333-.389.333-.79 0-.385.079-.582.231-.582.262 0 .43-.5.434-1.292.001-.369.082-.542.252-.542.179 0 .25-.183.25-.647 0-.507.072-.666.333-.734.284-.074.334-.228.334-1.02 0-.821.039-.932.333-.932.278 0 .333-.111.333-.667 0-.555.056-.666.334-.666.277 0 .333-.111.333-.667q0-.666.333-1 .334-.334.334-1c0-.556.055-.667.333-.667s.333-.111.333-.666c0-.459.073-.667.233-.667.297 0 .434-.365.434-1.161 0-.493.074-.653.333-.721.265-.069.334-.227.334-.769 0-.571.054-.682.333-.682.293 0 .333-.111.333-.917s.041-.917.334-.917c.276 0 .333-.111.333-.647 0-.507.072-.666.333-.734.273-.071.334-.228.334-.852 0-.583.078-.813.333-.972.234-.146.333-.389.333-.815 0-.467.077-.628.334-.695.255-.066.333-.227.333-.686 0-.376.124-.722.333-.932q.334-.334.334-1c0-.556.055-.667.333-.667.272 0 .333-.111.333-.606 0-.364.107-.685.267-.802.148-.108.306-.536.354-.963.064-.566.168-.788.399-.849.243-.063.314-.237.314-.764 0-.472.071-.682.232-.682.298 0 .434-.366.434-1.161 0-.494.074-.653.334-.721.249-.065.333-.227.333-.646 0-.378.108-.626.333-.767.253-.158.334-.389.334-.951 0-.572.076-.784.333-.921.271-.145.333-.349.333-1.089V30H316.5v.647c0 .507-.072.666-.333.735-.255.066-.334.227-.334.677 0 .374-.1.647-.272.743-.176.099-.301.455-.355 1.009-.066.696-.14.856-.394.856-.253 0-.312.126-.312.666 0 .459-.072.667-.232.667-.308 0-.435.369-.435 1.264 0 .625-.05.736-.333.736-.278 0-.333.111-.333.667 0 .458-.073.666-.233.666-.297 0-.434.366-.434 1.161 0 .494-.074.653-.333.721-.25.065-.334.227-.334.646 0 .378-.107.626-.333.767-.22.138-.335.391-.337.748-.002.298-.15.728-.33.957-.179.23-.327.661-.329.959q-.005.541-.246.541c-.15 0-.285.24-.352.625-.061.344-.216.71-.347.814s-.282.573-.338 1.042c-.066.559-.179.853-.328.853-.147 0-.226.201-.226.577 0 .407-.099.63-.334.756-.271.145-.333.349-.333 1.089 0 .8-.041.911-.333.911-.278 0-.334.111-.334.667 0 .555-.055.666-.333.666-.292 0-.333.111-.333.898 0 .757-.052.91-.334.984-.254.066-.333.227-.333.675 0 .441-.083.614-.333.693-.248.079-.334.253-.334.678 0 .35-.129.702-.333.906q-.333.333-.333 1c0 .555-.056.666-.334.666-.277 0-.333.111-.333.661 0 .49-.086.707-.333.839-.265.142-.334.349-.334 1.006 0 .717-.044.828-.333.828-.276 0-.333.111-.333.647 0 .507-.073.666-.334.734-.283.074-.333.228-.333 1.02 0 .821-.04.932-.333.932-.278 0-.334.111-.334.667 0 .555-.055.666-.333.666-.241 0-.333-.111-.333-.403 0-.575-.166-.93-.435-.93-.16 0-.232-.208-.232-.667 0-.555-.056-.666-.333-.666-.284 0-.334-.111-.334-.752 0-.545-.091-.83-.333-1.037-.211-.181-.333-.492-.333-.847 0-.422-.083-.584-.334-.649-.258-.068-.333-.228-.333-.709 0-.41-.114-.724-.333-.923-.226-.204-.334-.513-.334-.958 0-.516-.071-.675-.333-.744-.253-.066-.333-.227-.333-.666s-.081-.601-.334-.667c-.281-.074-.333-.227-.333-.984 0-.787-.041-.898-.333-.898-.278 0-.334-.111-.334-.666 0-.556-.055-.667-.333-.667-.294 0-.333-.111-.333-.932 0-.792-.05-.946-.334-1.02-.261-.068-.333-.227-.333-.734 0-.536-.057-.647-.333-.647-.277 0-.334-.111-.334-.653 0-.815-.134-1.181-.434-1.181-.164 0-.232-.22-.232-.75 0-.639-.05-.75-.334-.75-.276 0-.333-.111-.333-.649 0-.393-.089-.683-.227-.735-.127-.049-.266-.436-.316-.883-.051-.45-.206-.881-.357-.991a.75.75 0 0 1-.267-.538c0-.519-.175-.87-.434-.87-.133 0-.232-.169-.232-.396 0-.751-.209-1.438-.438-1.438-.15 0-.229-.198-.229-.577 0-.393-.099-.631-.311-.744-.211-.113-.339-.419-.4-.954-.05-.443-.205-.873-.355-.983s-.267-.432-.267-.734c0-.399-.087-.562-.334-.626-.258-.068-.333-.227-.333-.709 0-.409-.114-.724-.333-.923-.226-.204-.334-.513-.334-.958 0-.516-.071-.675-.333-.743-.261-.069-.333-.228-.333-.735 0-.536-.058-.647-.334-.647-.283 0-.333-.111-.333-.736 0-1.389 1.084-1.265-10.976-1.259-7.007.003-10.876.065-11.066.175" fill="#fcfcfc"/><path d="M40 .583q0 .583-.232.584c-.3 0-.435.366-.435 1.18 0 .542-.056.653-.333.653-.276 0-.333.111-.333.647 0 .507-.073.666-.334.735-.283.074-.333.227-.333 1.019 0 .821-.04.932-.333.932-.278 0-.334.111-.334.667s-.055.667-.333.667c-.292 0-.333.111-.333.897 0 .757-.052.911-.334.984-.254.067-.333.228-.333.675 0 .441-.083.614-.333.694-.267.084-.334.252-.334.843 0 .557-.081.788-.333.945-.234.147-.333.389-.333.816 0 .467-.077.627-.334.694-.265.069-.333.227-.333.769 0 .47-.072.683-.231.683-.262 0-.43.5-.433 1.291-.002.43-.072.542-.336.542-.278 0-.333.111-.333.667 0 .458-.073.666-.233.666-.307 0-.434.369-.434 1.264 0 .625-.05.736-.333.736-.276 0-.334.111-.334.648 0 .507-.072.666-.333.734-.279.073-.333.227-.333.952 0 .724-.054.878-.334.951-.249.066-.333.228-.333.646 0 .387-.102.612-.333.736-.257.137-.334.349-.334.917 0 .567-.077.779-.333.916-.235.126-.333.349-.333.756q-.001.576-.233.578c-.28 0-.434.359-.434 1.013 0 .303-.087.487-.231.487-.262 0-.43.5-.433 1.291-.002.351-.084.542-.235.542-.259 0-.434.352-.434.87 0 .189-.114.427-.253.528-.141.103-.299.575-.357 1.06-.064.543-.184.875-.316.875-.117 0-.262.297-.324.667-.07.41-.204.667-.348.667-.177 0-.236.25-.236 1 0 .889-.037 1-.333 1-.278 0-.333.111-.333.666 0 .556-.056.667-.334.667-.274 0-.333.111-.333.63 0 .423-.109.723-.333.915-.228.194-.334.491-.334.934 0 .509-.072.668-.333.736-.255.067-.333.227-.333.68 0 .423-.096.645-.334.772-.264.141-.333.349-.333 1.006 0 .716-.045.827-.333.827-.276 0-.334.111-.334.647 0 .507-.072.666-.333.735-.283.074-.333.227-.333 1.019 0 .821-.04.932-.334.932-.276 0-.333.111-.333.648 0 .507-.072.666-.333.734-.273.071-.334.227-.334.851 0 .584-.078.814-.333.973-.237.148-.333.388-.333.834 0 .516-.059.627-.334.627-.27 0-.333.111-.333.583 0 .361-.127.711-.333.917-.219.219-.334.556-.334.981 0 .507-.072.666-.333.734-.265.069-.333.227-.333.769 0 .472-.072.683-.233.683-.297 0-.434.365-.434 1.161 0 .493-.074.652-.333.72-.256.067-.334.228-.334.686q.001.6-.232.599c-.307 0-.434.369-.434 1.264 0 .625-.051.736-.334.736-.276 0-.333.111-.333.648 0 .507-.072.666-.333.734-.273.071-.334.227-.334.851 0 .584-.078.814-.333.973-.234.146-.333.388-.333.815 0 .467-.077.627-.334.694-.246.065-.333.228-.333.626 0 .297-.117.625-.261.73s-.305.526-.36.935c-.059.446-.221.832-.405.962-.197.14-.307.424-.307.792 0 .376-.079.574-.229.574-.229 0-.438.686-.438 1.437 0 .225-.099.396-.229.396-.137 0-.27.26-.332.648-.057.357-.217.692-.355.745-.181.07-.251.351-.251 1.018 0 .811-.04.922-.333.922-.278 0-.333.111-.333.667s-.056.667-.334.667c-.277 0-.333.111-.333.666q0 .667-.333 1-.334.334-.334 1c0 .556-.055.667-.333.667s-.333.111-.333.667c0 .458-.073.666-.233.666-.301 0-.434.367-.434 1.196 0 .529-.07.687-.333.756-.259.068-.334.227-.334.715s-.074.647-.333.715c-.278.073-.333.227-.333.936 0 .738-.044.849-.334.849-.276 0-.333.111-.333.647 0 .507-.072.666-.333.735-.284.074-.334.227-.334 1.019 0 .821-.039.932-.333.932-.276 0-.333.111-.333.648 0 .507-.073.666-.334.734-.255.067-.333.227-.333.686 0 .377-.124.723-.333.932q-.334.334-.334 1c0 .367-.075.667-.166.667S0 98.3 0 98.667v.666h13.906c15.556 0 14.761.063 14.761-1.162 0-.727.044-.838.333-.838.277 0 .333-.111.333-.655 0-.509.075-.679.334-.761.279-.089.333-.253.333-1.012 0-.794.041-.905.333-.905.276 0 .334-.111.334-.647 0-.507.072-.666.333-.735.272-.071.333-.227.333-.851 0-.584.079-.813.334-.972.237-.149.333-.389.333-.835 0-.516.059-.627.333-.627.27 0 .334-.111.334-.583 0-.361.127-.71.333-.917.235-.234.333-.555.333-1.083 0-.639.05-.75.334-.75.277 0 .333-.111.333-.667 0-.458.072-.666.232-.666.298 0 .435-.366.435-1.161 0-.494.073-.653.333-.721.25-.065.333-.227.333-.646 0-.378.108-.626.334-.767.259-.162.333-.389.333-1.021 0-.672.058-.827.333-.899.253-.066.334-.228.334-.667s.08-.601.333-.667c.262-.068.333-.227.333-.743 0-.445.108-.754.334-.958.219-.199.333-.514.333-.923 0-.482.075-.641.333-.709.247-.064.334-.227.334-.626 0-.306.117-.625.271-.738.165-.12.304-.531.354-1.045.062-.649.155-.867.395-.929.233-.062.313-.235.313-.681q0-.597.229-.599c.224 0 .438-.684.438-1.398 0-.195.15-.449.333-.564.214-.133.333-.388.333-.712 0-.294.104-.543.25-.599.17-.065.25-.331.25-.827 0-.55.083-.782.334-.939.237-.148.333-.389.333-.835 0-.515.059-.626.333-.626.284 0 .334-.111.334-.75 0-.53.068-.75.232-.75.3 0 .434-.366.434-1.181 0-.542.057-.653.334-.653.276 0 .333-.111.333-.647 0-.507.072-.666.333-.734.284-.074.334-.228.334-1.02 0-.821.039-.932.333-.932.276 0 .333-.111.333-.647 0-.507.073-.666.334-.735.277-.072.333-.227.333-.916s.056-.845.333-.917c.258-.067.334-.227.334-.702 0-.474.076-.634.333-.701.269-.071.333-.228.333-.817 0-.548.083-.78.334-.937.234-.146.333-.389.333-.815 0-.467.077-.628.333-.695s.334-.227.334-.686c0-.376.123-.722.333-.932q.333-.334.333-1c0-.556.056-.667.334-.667.274 0 .333-.111.333-.626 0-.446.096-.687.333-.835.261-.163.334-.389.334-1.04 0-.721.044-.832.333-.832.276 0 .333-.111.333-.647 0-.507.073-.666.334-.735.283-.074.333-.227.333-1.019 0-.821.04-.932.333-.932.27 0 .334-.111.334-.578 0-.407.098-.63.333-.756s.333-.349.333-.762c0-.355.132-.726.334-.943.194-.208.333-.588.333-.909 0-.361.08-.552.232-.552.281 0 .435-.359.435-1.014 0-.302.087-.486.229-.486.226 0 .437-.685.437-1.418 0-.237.124-.409.334-.464.246-.064.333-.227.333-.626 0-.306.118-.625.272-.738.165-.12.304-.531.353-1.045.062-.649.155-.867.395-.929.233-.062.313-.235.313-.681 0-.422.074-.599.25-.599.188 0 .25-.2.25-.797 0-.605.08-.854.334-1.037.232-.167.333-.431.333-.87 0-.519.059-.63.333-.63.276 0 .334-.111.334-.641 0-.429.11-.74.333-.942.22-.199.333-.513.333-.923 0-.481.076-.641.334-.709.263-.068.333-.227.333-.75 0-.522.07-.681.333-.75.279-.072.334-.227.334-.936 0-.738.043-.849.333-.849.276 0 .333-.111.333-.647 0-.507.073-.666.334-.734.283-.074.333-.228.333-1.02 0-.821.04-.932.333-.932.276 0 .334-.111.334-.647 0-.507.072-.666.333-.735.272-.071.333-.227.333-.851 0-.584.079-.813.334-.972.237-.149.333-.389.333-.835 0-.516.059-.627.333-.627.275 0 .334-.111.334-.629 0-.424.109-.723.333-.915.229-.196.333-.492.333-.943 0-.51.075-.68.334-.763S67 5.331 67 4.822c0-.449.073-.655.232-.655.298 0 .435-.366.435-1.161 0-.494.073-.653.333-.721.263-.069.333-.227.333-.752 0-.436.086-.697.25-.76.138-.053.25-.248.25-.434 0-.338-.037-.339-14.416-.339H40z" fill="#fcb41c"/></g></svg>