<svg id="Layer_1" data-name="Layer 1" xmlns="http://www.w3.org/2000/svg" viewBox="0 0 378.48 89.57"><defs><style>.cls-1{fill:#fefefe}.cls-2{fill:#000}.cls-3{fill:#4167b0}</style></defs><path class="cls-1" d="M0 25.06V0h378.48v89.57H0V67.02c5.51 3.83 11.35 7.53 17.63 10.02V36.01c0-.17-1.35-2.5-1.72-2.85C14.39 31.73 5.57 27 3.23 25.9c-1.09-.51-1.81-1.19-3.23-.85Zm20.78-13.79c1.8.03 3.32.95 4.83 1.78 10.6 5.85 20.82 12.45 31.51 18.14 3.69.83 12.94-4.59 16.14-6.86 1.35-.96 2.43-1.77 1.09-3.39L39.3 1.26c-6.42 1.72-12.95 6.2-18.52 10.01m35.9 21.94L19.15 12.52c-.78-.19-1.4.09-2.11.35-1.46.53-15.37 8.56-15.78 9.37l37.62 20.87c2.89.26 14.8-7.87 17.79-9.9Zm63.45-12.38c-14.89 2-23.58 17.84-19.7 31.8 4.6 16.53 24.62 22.85 38.94 14.28 7.39-4.42 4.51-5-.6-9.87-5.41 4.6-10.88 6.63-18 4.79-18.45-4.75-15.54-36.34 8.48-32.86 4.19.61 6.01 2.94 9.51 4.74l5.41-5.13c-5.61-7.19-15.31-8.93-24.04-7.75m57.31 0c-28.23 3.8-27.56 48.42 3.63 49.94 37.25 1.81 36.88-55.39-3.63-49.94m54.31.47h-9.45v47.92l.94.94h32.75c1.89-1.99.58-5.55.94-8.14h-25.19V21.3Zm38.41 48.85h9.45l4.34-10.89 23.58-.29c1.94.66 3.55 9.44 5.08 10.61 1.75 1.34 6.85.2 9.19.57l-21.7-48.9c-2.41.49-7.65-.98-9.1 1.04l-20.83 47.87Zm92.89-48.85c-8.28-1.11-18.86.82-27.39 0v7.52h25.5c4.47 0 7.12 7.03 3.9 10.46-.36.38-3.61 2.07-3.9 2.07h-16.69v-5.01h-8.82v33.82h25.5c2.57 0 8.61-1.57 10.98-2.86 8.64-4.72 7.73-19.29-1.85-22.2-.27-1.55 1.52-1.71 2.42-2.9 6.99-9.21 1.29-19.43-9.67-20.89ZM78.09 24.43 41.54 45.39c-.44.45-1.87 2.17-1.87 2.53v17.85L76.18 45.4c.81-.48 1.9-3.11 1.9-3.75V24.42ZM20.15 35.7v42.91l17.01 10.02V46.66c0-2.42-14.44-9.14-17-10.96Zm57.94 11.28L42.61 67.13c-.81.38-2.94 2.75-2.94 3.34v16.91l1.47.85 35.72-20.87c.27-.39 1.23-2.89 1.23-3.16V46.97Z"/><path class="cls-3" d="M0 25.06c1.42-.34 2.14.34 3.23.85 2.34 1.1 11.16 5.83 12.68 7.26.37.35 1.72 2.68 1.72 2.85v41.03C11.35 74.55 5.51 70.86 0 67.03z"/><path class="cls-2" d="M363.05 21.3c10.95 1.46 16.66 11.68 9.67 20.89-.9 1.19-2.69 1.35-2.42 2.9 9.58 2.91 10.48 17.48 1.85 22.2-2.37 1.29-8.41 2.86-10.98 2.86h-25.5V36.33h8.82v5.01h16.69c.29 0 3.54-1.69 3.9-2.07 3.22-3.42.57-10.46-3.9-10.46h-25.5v-7.52c8.54.82 19.11-1.11 27.39 0Zm-18.58 41.34h17.32c5.65 0 9.63-6.68 5.62-11.22-.76-.86-4.03-2.56-4.99-2.56h-17.95zM177.44 20.83c40.51-5.45 40.88 51.75 3.63 49.94-31.18-1.52-31.86-46.14-3.63-49.94m-6.56 37.2c8.11 7.8 23.48 4.97 27.34-5.87 4.58-12.86-4.37-24.93-18.37-23.28-13.95 1.65-18.22 20.25-8.98 29.15Zm99.28 12.12 20.83-47.87c1.45-2.02 6.69-.54 9.1-1.04l21.7 48.9c-2.34-.36-7.44.77-9.19-.57-1.53-1.17-3.14-9.95-5.08-10.61l-23.58.29-4.34 10.89h-9.45Zm17.63-18.79h17c-2.56-5.93-4.73-12.11-7.47-17.96-.36-.78-.49-2.45-1.65-2.09zM120.13 20.83c8.73-1.18 18.43.57 24.04 7.75l-5.41 5.13c-3.49-1.8-5.32-4.13-9.51-4.74-24.02-3.48-26.93 28.11-8.48 32.86 7.12 1.83 12.6-.2 18-4.79 5.11 4.87 8 5.44.6 9.87-14.32 8.57-34.34 2.24-38.94-14.28-3.88-13.95 4.8-29.79 19.7-31.8"/><path class="cls-3" d="M78.09 46.98v17.23c0 .27-.97 2.77-1.23 3.16L41.14 88.24l-1.47-.85V70.48c0-.59 2.13-2.96 2.94-3.34l35.48-20.15Zm0-22.55v17.23c0 .64-1.09 3.27-1.9 3.75L39.68 65.78V47.93c0-.36 1.43-2.08 1.87-2.53L78.1 24.44ZM20.78 11.27c5.56-3.81 12.1-8.29 18.52-10.01l35.06 19.69c1.33 1.62.25 2.43-1.09 3.39-3.2 2.27-12.45 7.69-16.14 6.86-10.7-5.69-20.91-12.3-31.51-18.14-1.51-.83-3.03-1.75-4.83-1.78Zm35.9 21.94c-2.99 2.03-14.9 10.17-17.79 9.9L1.26 22.24c.41-.82 14.32-8.85 15.78-9.37.71-.25 1.33-.53 2.11-.35z"/><path class="cls-2" d="M231.75 21.3v40.71h25.19c-.36 2.6.95 6.15-.94 8.14h-32.75l-.94-.94V21.3h9.45Z"/><path class="cls-3" d="M20.15 35.7c2.57 1.82 17 8.54 17 10.96v41.97l-17-10.02z"/><path class="cls-1" d="M344.47 62.64V48.86h17.95c.96 0 4.23 1.7 4.99 2.56 4.02 4.54.03 11.22-5.62 11.22zm-173.59-4.61c-9.25-8.89-4.97-27.5 8.98-29.15 14-1.66 22.94 10.42 18.37 23.28C194.37 63 179 65.83 170.89 58.03Zm116.91-6.67 7.88-20.05c1.16-.37 1.29 1.31 1.65 2.09 2.74 5.85 4.92 12.03 7.47 17.96z"/></svg>