<svg xmlns="http://www.w3.org/2000/svg" width="400" height="136" viewBox="0 0 400 136"><g fill-rule="evenodd"><path d="M393.167 26.667c0 .091-.225.166-.5.166s-.5.075-.5.167-.15.167-.334.167c-.183 0-.333.075-.333.166s-.114.167-.254.167c-.331 0-1.746 1.415-1.746 1.746 0 .14-.075.254-.167.254-.091 0-.166.15-.166.333s-.075.334-.167.334-.167.15-.167.333-.075.333-.166.333c-.101 0-.167.691-.167 1.74 0 .981.073 1.786.167 1.844.091.056.166.248.166.426s.075.324.167.324.167.15.167.333.075.333.166.333.167.098.167.218c0 .279 1.067 1.449 1.321 1.449.107 0 .397.19.645.422s.638.462.867.511c.23.05.589.16.8.245.978.396 4.145-.099 4.339-.679.031-.091.157-.166.281-.166.417 0 2.06-1.807 2.169-2.384.211-1.127.012-6.039-.255-6.307a12 12 0 0 1-.667-.778c-.229-.29-.51-.528-.625-.529s-.208-.077-.208-.168-.113-.167-.25-.167c-.138 0-.25-.075-.25-.167 0-.091-.15-.166-.334-.166-.183 0-.333-.075-.333-.167s-.262-.167-.583-.167-.584-.075-.584-.166c0-.098-.555-.167-1.333-.167s-1.333.069-1.333.167m2.666 2c0 .091.15.166.334.166.183 0 .333.075.333.167s.115.167.256.167c.331 0 1.411 1.079 1.411 1.411 0 .14.075.255.166.255s.167.151.167.336.088.477.196.65c.218.348-.122 2.681-.389 2.681-.077 0-.14.118-.14.262 0 .252-.376.738-.572.738-.052 0-.095-.15-.095-.333s-.075-.334-.167-.334c-.091 0-.166-.133-.166-.296s-.15-.405-.334-.537c-.183-.132-.333-.414-.333-.627s.15-.548.333-.745c.39-.418.46-1.74.125-2.337-.545-.971-.92-1.124-2.75-1.124-1.027 0-1.708-.067-1.708-.167 0-.092.146-.167.323-.167s.37-.075.427-.166.661-.167 1.343-.167c.716 0 1.24.07 1.24.167m-3.666 3.916c0 3.139-.012 3.25-.334 3.25-.208 0-.333-.111-.333-.296 0-.163-.15-.405-.333-.537s-.334-.374-.334-.537-.075-.296-.166-.296-.167-.225-.167-.5c0-.282-.091-.506-.208-.513-.167-.011-.167-.03 0-.098.127-.051.208-.404.208-.905 0-.707.194-1.345.5-1.651.046-.046.188-.286.316-.534s.353-.483.5-.522.286-.081.309-.091c.023-.011.042 1.443.042 3.23m2.666-1.083c0 .219-.111.333-.323.333-.22 0-.315-.106-.298-.333.016-.2.145-.333.323-.333.187 0 .298.124.298.333M243.5 34c0 .098-.583.167-1.417.167-.833 0-1.416.068-1.416.166 0 .092-.338.167-.75.167-.413 0-.75.075-.75.167 0 .091-.3.166-.667.166s-.667.075-.667.167-.225.167-.5.167-.5.075-.5.166-.225.167-.5.167-.5.075-.5.167c0 .091-.145.166-.323.166s-.37.075-.427.167-.286.167-.51.167c-.223 0-.406.075-.406.166s-.134.167-.297.167-.405.15-.537.333-.373.334-.536.334-.297.075-.297.166-.133.167-.297.167-.404.15-.536.333-.344.334-.47.334c-.127 0-.44.225-.697.5s-.551.5-.653.5c-.218 0-2.347 2.091-2.347 2.305 0 .08-.225.381-.5.668s-.5.62-.5.738-.15.323-.333.455-.334.374-.334.537-.075.297-.166.297-.167.15-.167.333-.075.333-.167.333c-.091 0-.166.15-.166.334 0 .183-.075.333-.167.333s-.167.146-.167.323-.075.37-.166.427-.167.282-.167.5-.075.443-.167.5c-.091.057-.166.361-.166.677 0 .315-.075.573-.167.573-.095 0-.167.489-.167 1.133 0 .624-.063 1.205-.141 1.292-.178.2.143 5.408.334 5.408.077 0 .141.3.141.667s.075.667.166.667.167.225.167.5.075.5.167.5c.091 0 .166.225.166.5s.075.5.167.5.167.15.167.333.063.333.14.333.314.338.526.75c.212.413.449.75.527.75.077 0 .14.108.14.24 0 .265 3.092 3.427 3.351 3.427.09 0 .35.173.578.384s.843.604 1.367.874c.525.27.991.536 1.037.593.197.242 1.185.649 1.575.649.234 0 .425.075.425.167 0 .091.15.166.334.166.183 0 .333.075.333.167s.15.167.333.167.334.075.334.166.225.167.5.167.5.075.5.167c0 .091.225.166.5.166s.5.075.5.167.225.167.5.167.5.075.5.166.225.167.5.167.5.075.5.167c0 .091.262.166.583.166s.583.075.583.167.263.167.584.167.583.075.583.166.3.167.667.167c.366 0 .666.075.666.167 0 .091.338.166.75.166.413 0 .75.075.75.167s.338.167.75.167c.413 0 .75.075.75.166s.296.167.657.167.703.075.76.167c.057.091.357.166.667.166s.61.075.666.167.361.167.677.167c.315 0 .573.075.573.166s.221.167.49.167c.27 0 .537.075.594.167.056.091.361.166.676.166s.574.075.574.167.183.167.406.167.454.075.51.166c.057.092.249.167.427.167s.323.075.323.167c0 .091.225.166.5.166s.5.075.5.167.15.167.334.167c.183 0 .333.075.333.166s.15.167.333.167.334.075.334.167c0 .091.15.166.333.166s.333.075.333.167.094.167.209.167.47.225.791.5c.321.274.642.499.713.499.22.001 1.621 1.479 1.621 1.709 0 .12.15.326.333.458.196.141.333.432.333.704 0 .255.075.463.167.463s.167.225.167.5.075.5.166.5c.095 0 .167.495.167 1.153q0 1.154.208 1.229c.167.061.167.121 0 .297-.124.132-.208.677-.208 1.354 0 .645-.072 1.134-.167 1.134-.091 0-.166.225-.166.5s-.075.5-.167.5-.167.187-.167.416c0 .23-.075.417-.166.417s-.167.112-.167.25-.075.25-.167.25c-.091 0-.166.098-.166.219 0 .12-.15.379-.334.576-.183.197-.333.4-.333.452 0 .195-1.836 1.92-2.043 1.92-.119 0-.325.15-.457.333s-.374.333-.537.333-.296.075-.296.167-.15.167-.334.167c-.183 0-.333.075-.333.166s-.15.167-.333.167-.334.075-.334.167c0 .091-.225.166-.5.166s-.5.075-.5.167-.225.167-.5.167-.5.075-.5.166-.368.167-.819.167-.845.077-.877.171c-.077.233-7.864.231-7.942-.002-.031-.093-.5-.169-1.042-.169-.547 0-.986-.074-.986-.167 0-.091-.3-.166-.667-.166s-.667-.075-.667-.167-.247-.167-.55-.167c-.302 0-.621-.059-.708-.132s-.458-.23-.825-.348a16 16 0 0 1-1.373-.534c-.389-.175-.82-.319-.959-.319-.138 0-.251-.075-.251-.167 0-.091-.15-.166-.334-.166-.183 0-.333-.075-.333-.167s-.15-.167-.333-.167-.334-.075-.334-.166-.15-.167-.333-.167-.333-.056-.333-.125-.357-.312-.792-.54-.937-.547-1.115-.708c-.177-.162-.421-.294-.541-.294s-.219-.062-.219-.138-.206-.245-.458-.375a4 4 0 0 1-.828-.599c-.204-.199-.522-.41-.709-.469s-.338-.169-.338-.243c0-.618-3.545-.811-4.429-.241-.637.411-1.238 1.005-1.238 1.224a.17.17 0 0 1-.167.175c-.091 0-.166.145-.166.323s-.075.37-.167.427-.167.619-.167 1.25.075 1.193.167 1.25.167.215.167.353c0 .315 2.78 3.063 3.098 3.063.129 0 .235.075.235.167s.133.167.297.167.404.15.536.333.374.333.537.333.297.075.297.167.133.167.296.167.405.15.537.333.374.333.537.333.296.075.296.167.114.167.253.167c.138 0 .382.07.541.155.159.086.533.254.831.374s.542.275.542.345.188.126.417.126.416.075.416.166.15.167.334.167c.183 0 .333.075.333.167 0 .091.225.166.5.166s.5.075.5.167.146.167.323.167.37.075.427.166.282.167.5.167.443.075.5.167c.057.091.361.166.677.166.315 0 .573.075.573.167s.3.167.667.167c.366 0 .666.075.666.166s.3.167.667.167.667.075.667.167c0 .091.412.166.916.166.505 0 .917.075.917.167 0 .099.639.167 1.583.167.945 0 1.584.067 1.584.166 0 .105 1.111.167 3 .167s3-.062 3-.167c0-.097.555-.166 1.333-.166s1.333-.07 1.333-.167c0-.092.375-.167.834-.167s.833-.075.833-.166.3-.167.667-.167c.366 0 .666-.075.666-.167 0-.091.225-.166.5-.166s.5-.075.5-.167.225-.167.5-.167.5-.075.5-.166.183-.167.407-.167.453-.075.51-.167c.057-.091.249-.166.427-.166.177 0 .323-.075.323-.167s.15-.167.333-.167.334-.075.334-.166.133-.167.296-.167.405-.15.537-.333.374-.334.537-.334.296-.075.296-.166.12-.167.267-.167c.146 0 .476-.225.733-.5s.543-.5.635-.5c.237 0 3.032-2.771 3.032-3.006 0-.107.225-.404.5-.661s.5-.587.5-.733.075-.267.167-.267c.091 0 .166-.15.166-.333s.075-.333.167-.333.167-.15.167-.334c0-.183.075-.333.166-.333s.167-.15.167-.333.075-.334.167-.334c.091 0 .166-.15.166-.333s.075-.333.167-.333.167-.225.167-.5.075-.5.166-.5.167-.221.167-.49c0-.27.075-.537.167-.594.091-.056.166-.511.166-1.01 0-.498.075-.906.167-.906.104 0 .167-1.028.167-2.75 0-1.723-.063-2.75-.167-2.75-.092 0-.167-.371-.167-.824s-.075-.87-.166-.926-.167-.361-.167-.677c0-.315-.075-.573-.167-.573-.091 0-.166-.146-.166-.324s-.075-.37-.167-.426c-.092-.057-.167-.249-.167-.427s-.075-.323-.166-.323-.167-.15-.167-.334c0-.183-.057-.333-.126-.333s-.231-.238-.36-.53c-.222-.499-.492-.888-.972-1.393-.115-.121-.209-.274-.209-.341 0-.161-2.121-2.236-2.287-2.237-.071 0-.369-.225-.662-.5-.293-.274-.633-.499-.755-.499s-.33-.15-.462-.333-.374-.334-.537-.334-.297-.075-.297-.166-.15-.167-.333-.167-.333-.075-.333-.167c0-.091-.144-.166-.32-.166-.175 0-.344-.057-.375-.125-.078-.177-2.138-1.209-2.412-1.209-.125 0-.227-.075-.227-.166s-.225-.167-.5-.167-.5-.075-.5-.167c0-.091-.187-.166-.416-.166S257 66.092 257 66s-.183-.167-.407-.167-.453-.075-.51-.166-.323-.167-.593-.167-.49-.075-.49-.167c0-.091-.263-.166-.583-.166-.321 0-.584-.075-.584-.167s-.3-.167-.666-.167-.667-.075-.667-.166-.3-.167-.667-.167c-.366 0-.666-.075-.666-.167 0-.091-.3-.166-.667-.166s-.667-.075-.667-.167-.3-.167-.666-.167-.667-.075-.667-.166-.338-.167-.75-.167-.75-.075-.75-.167c0-.091-.3-.166-.667-.166-.366 0-.666-.075-.666-.167s-.263-.167-.584-.167-.583-.075-.583-.166-.3-.167-.667-.167c-.366 0-.666-.075-.666-.167 0-.091-.225-.166-.5-.166s-.5-.075-.5-.167-.225-.167-.5-.167-.5-.075-.5-.166-.188-.167-.417-.167-.417-.075-.417-.167c0-.091-.187-.166-.416-.166s-.417-.075-.417-.167-.15-.167-.333-.167-.334-.075-.334-.166-.145-.167-.323-.167-.37-.075-.427-.167c-.056-.091-.234-.166-.395-.166-.16 0-.453-.15-.65-.334-.196-.183-.473-.333-.614-.333s-.257-.075-.257-.167c0-.091-.114-.166-.253-.166-.309 0-2.239-1.914-2.567-2.545-.13-.25-.299-.455-.375-.455s-.139-.225-.139-.5-.075-.5-.166-.5-.167-.225-.167-.5-.075-.5-.167-.5c-.103 0-.166-.886-.166-2.324 0-1.369.068-2.366.166-2.426.092-.057.167-.286.167-.51s.075-.407.167-.407c.091 0 .166-.098.166-.217 0-.306.392-1.113.542-1.115.069-.001.125-.118.125-.261 0-.68 2.759-3.021 4.583-3.888a81 81 0 0 0 1.456-.703 1.8 1.8 0 0 1 .699-.149c.225 0 .455-.075.512-.167s.399-.167.76-.167.657-.078.657-.173c0-.352 8.69-.012 9.075.355.087.084.401.152.698.152s.587.075.643.166.361.167.677.167c.315 0 .573.075.573.167 0 .091.225.166.5.166s.5.075.5.167.15.167.334.167c.183 0 .333.075.333.166s.225.167.5.167.5.075.5.167c0 .091.15.166.333.166s.334.075.334.167.15.167.333.167.333.075.333.166.15.167.334.167c.183 0 .333.075.333.167 0 .091.098.166.219.166.12 0 .379.15.576.334.197.183.404.333.46.333s.415.215.798.477c1.432.981 2.021 1.19 3.357 1.19.727 0 1.257-.071 1.257-.167 0-.092.15-.167.333-.167s.333-.075.333-.166.083-.167.183-.167c.214 0 1.151-.965 1.151-1.184 0-.082.075-.149.166-.149s.167-.225.167-.5.075-.5.167-.5.166-.441.166-.99c0-.545-.075-1.037-.166-1.094-.092-.056-.167-.269-.167-.473s-.15-.478-.333-.61-.334-.342-.334-.465c0-.28-.407-.702-.677-.702-.11 0-.322-.131-.47-.291-.304-.33-1.614-1.042-1.915-1.042-.109 0-.306-.15-.438-.333s-.373-.334-.536-.334-.297-.075-.297-.166-.15-.167-.333-.167-.334-.075-.334-.167c0-.091-.15-.166-.333-.166s-.333-.075-.333-.167-.188-.167-.417-.167-.417-.075-.417-.166-.187-.167-.416-.167-.417-.075-.417-.167c0-.091-.187-.166-.417-.166s-.416-.075-.416-.167-.188-.167-.417-.167-.417-.075-.417-.166-.258-.167-.573-.167c-.316 0-.62-.075-.677-.167-.056-.091-.323-.166-.593-.166s-.49-.075-.49-.167-.371-.167-.823-.167c-.453 0-.87-.075-.927-.166s-.511-.167-1.01-.167-.907-.075-.907-.167c0-.1-.666-.166-1.666-.166S248.5 34.1 248.5 34c0-.104-.944-.167-2.5-.167s-2.5.063-2.5.167m114 0c0 .095-.5.167-1.167.167-.666 0-1.166.071-1.166.166 0 .092-.333.167-.74.167-.408 0-.787.075-.844.167-.056.091-.356.166-.666.166s-.61.075-.667.167-.324.167-.593.167c-.27 0-.49.075-.49.166s-.225.167-.5.167-.5.075-.5.167c0 .091-.225.166-.5.166s-.5.075-.5.167-.15.167-.334.167c-.183 0-.333.075-.333.166s-.225.167-.5.167-.5.075-.5.167c0 .091-.15.166-.333.166s-.334.075-.334.167-.15.167-.333.167-.333.075-.333.166-.15.167-.334.167c-.183 0-.333.075-.333.167 0 .091-.116.166-.257.166s-.418.15-.615.334c-.197.183-.456.333-.576.333s-.219.075-.219.167c0 .091-.15.166-.333.166s-.333.063-.333.139-.207.244-.459.374a3.1 3.1 0 0 0-.728.528c-.148.161-.36.293-.471.293s-.49.3-.842.666c-.353.367-.725.667-.827.667-.223 0-3.173 2.946-3.173 3.169 0 .085-.338.493-.75.906-.413.412-.75.834-.75.937s-.225.398-.5.655-.5.57-.5.696c0 .127-.15.338-.334.47-.183.132-.333.374-.333.537s-.075.297-.167.297c-.091 0-.166.133-.166.296s-.15.405-.334.537c-.183.132-.333.374-.333.537s-.075.296-.167.296c-.091 0-.166.15-.166.334 0 .183-.075.333-.167.333s-.167.15-.167.333-.075.334-.166.334-.167.15-.167.333-.075.333-.167.333c-.091 0-.166.15-.166.334 0 .183-.075.333-.167.333s-.167.15-.167.333-.075.334-.166.334-.167.225-.167.5-.075.5-.167.5c-.091 0-.166.15-.166.333s-.075.333-.167.333-.167.225-.167.5-.075.5-.166.5-.167.225-.167.5-.075.5-.167.5c-.091 0-.166.3-.166.667s-.075.667-.167.667-.167.3-.167.666-.075.667-.166.667c-.093 0-.167.444-.167 1s-.074 1-.167 1c-.097 0-.166.556-.166 1.333 0 .778-.07 1.334-.167 1.334-.232 0-.209.557.033.8.156.155.156.2 0 .2-.144 0-.2.537-.2 1.916s.056 1.917.2 1.917c.156 0 .156.044 0 .2-.242.242-.265.8-.033.8.097 0 .167.556.167 1.333 0 .778.069 1.334.166 1.334.092 0 .167.375.167.833s.075.833.167.833c.091 0 .166.375.166.834s.075.833.167.833.167.225.167.5.075.5.166.5.167.3.167.667c0 .366.075.666.167.666.091 0 .166.225.166.5s.075.5.167.5.167.15.167.334c0 .183.075.333.166.333s.167.225.167.5.075.5.167.5c.091 0 .166.15.166.333s.075.334.167.334.167.15.167.333.075.333.166.333.167.15.167.334c0 .183.075.333.167.333.091 0 .166.15.166.333s.075.334.167.334.167.133.167.296.15.405.333.537.333.374.333.537.075.296.167.296.167.134.167.297.15.405.333.537.333.357.333.5.15.368.334.5c.183.132.333.343.333.47s.225.439.5.696.5.554.5.66.45.634 1 1.174 1 1.07 1 1.179c0 .202.821.987 1.033.987.065 0 .569.45 1.12 1s1.088 1 1.192 1 .398.225.655.5.57.5.697.5c.126 0 .338.15.47.334.132.183.373.333.536.333s.297.075.297.167c0 .091.15.166.333.166s.334.075.334.167.133.167.296.167.405.15.537.333.374.333.537.333.296.075.296.167.15.167.334.167c.183 0 .333.075.333.166s.225.167.5.167.5.075.5.167c0 .091.15.166.333.166s.334.075.334.167.15.167.333.167.333.075.333.166.225.167.5.167.5.075.5.167c0 .091.225.166.5.166s.5.075.5.167.221.167.49.167c.27 0 .537.075.594.166s.356.167.666.167.61.075.667.167c.057.091.436.166.843.166s.74.075.74.167c0 .095.5.167 1.167.167s1.167.071 1.167.166c0 .107 1.666.167 4.666.167s4.667-.06 4.667-.167c0-.092.444-.166 1-.166s1-.074 1-.167c0-.092.375-.167.833-.167.459 0 .834-.075.834-.166s.3-.167.666-.167.667-.075.667-.167c0-.091.225-.166.5-.166s.5-.075.5-.167.225-.167.5-.167.5-.075.5-.166.225-.167.5-.167.5-.075.5-.167c0-.091.15-.166.333-.166s.334-.075.334-.167.225-.167.5-.167.5-.075.5-.166.15-.167.333-.167.333-.075.333-.167c0-.091.15-.166.334-.166.183 0 .333-.075.333-.167s.15-.167.333-.167.334-.075.334-.166.15-.167.333-.167.333-.075.333-.167c0-.091.15-.166.334-.166.183 0 .333-.075.333-.167s.098-.167.219-.167c.12 0 .379-.15.576-.333s.425-.333.507-.333.384-.225.672-.5.604-.5.702-.5.544-.375.991-.834.89-.833.987-.833c.19 0 2.552-2.411 2.664-2.719.037-.102.43-.54.875-.973.444-.432.807-.874.807-.98 0-.107.225-.404.5-.661s.5-.571.5-.697.15-.338.333-.47.334-.374.334-.537.075-.296.166-.296.167-.134.167-.297.15-.405.333-.537.334-.373.334-.536.075-.297.166-.297.167-.15.167-.333.075-.334.167-.334c.091 0 .166-.15.166-.333s.075-.333.167-.333.167-.15.167-.334c0-.183.075-.333.166-.333s.167-.15.167-.333.075-.334.167-.334c.091 0 .166-.15.166-.333s.075-.333.167-.333.167-.225.167-.5.075-.5.166-.5.167-.15.167-.334c0-.183.075-.333.167-.333.091 0 .166-.225.166-.5s.075-.5.167-.5.167-.225.167-.5.075-.5.166-.5.167-.3.167-.667c0-.366.075-.666.167-.666.091 0 .166-.3.166-.667s.075-.667.167-.667.167-.36.167-.8.069-.871.154-.958.177-.927.205-1.867c.029-.939.114-1.708.19-1.708.18 0 .103-4.989-.078-5.101-.076-.047-.138-.681-.138-1.409 0-.771-.07-1.323-.167-1.323-.091 0-.166-.375-.166-.834s-.075-.833-.167-.833-.167-.375-.167-.833c0-.459-.075-.834-.166-.834s-.167-.225-.167-.5-.075-.5-.167-.5c-.091 0-.166-.258-.166-.573 0-.316-.06-.611-.134-.656s-.237-.463-.363-.927c-.127-.464-.278-.844-.337-.844s-.208-.375-.333-.833-.288-.833-.363-.833-.137-.15-.137-.334c0-.183-.075-.333-.167-.333-.091 0-.166-.15-.166-.333s-.075-.334-.167-.334-.167-.15-.167-.333-.075-.333-.166-.333-.167-.134-.167-.297-.15-.405-.333-.537-.334-.373-.334-.536-.075-.297-.166-.297-.167-.133-.167-.297-.15-.404-.333-.536-.334-.344-.334-.47c0-.127-.225-.44-.5-.697s-.5-.555-.5-.663-.3-.485-.666-.837-.667-.722-.667-.822c0-.229-4.104-4.345-4.332-4.345a.17.17 0 0 1-.168-.166.17.17 0 0 0-.168-.167c-.093 0-.404-.225-.692-.5s-.59-.5-.672-.5-.31-.15-.506-.333c-.197-.184-.457-.334-.577-.334s-.218-.061-.218-.135-.263-.239-.584-.365-.583-.29-.583-.364-.15-.136-.333-.136-.334-.056-.335-.125c-.002-.149-.809-.541-1.115-.541-.119 0-.217-.075-.217-.167s-.187-.167-.417-.167-.416-.075-.416-.166-.15-.167-.334-.167c-.183 0-.333-.075-.333-.167 0-.091-.225-.166-.5-.166s-.5-.075-.5-.167-.146-.167-.323-.167-.37-.075-.427-.166-.361-.167-.677-.167c-.315 0-.573-.075-.573-.167 0-.091-.225-.166-.5-.166s-.5-.075-.5-.167-.3-.167-.667-.167c-.366 0-.666-.075-.666-.166s-.296-.167-.657-.167-.703-.075-.76-.167c-.057-.091-.586-.166-1.177-.166-.604 0-1.073-.073-1.073-.167 0-.107-1.611-.167-4.5-.167s-4.5.06-4.5.167m37.153.833c.063.046.245.364.405.707.199.43.43.655.741.723.716.158.811.21.409.224-.206.007-.375.088-.375.18 0 .097-.555.166-1.333.166-.733 0-1.333-.069-1.333-.155s-.169-.187-.375-.227c-.207-.04-.06-.082.327-.095.984-.032 1.355-.464 1.282-1.489-.03-.431-.012-.634.041-.45.053.183.148.37.211.416M2.833 35c0 .092-.225.167-.5.167s-.5.075-.5.166-.118.167-.263.167c-.144 0-.558.307-.918.682l-.655.681.043 31.285.043 31.284.426.409c.525.504 1.072.826 1.405.826.139 0 .253.075.253.166 0 .099.611.167 1.5.167s1.5-.068 1.5-.167c0-.091.15-.166.333-.166s.333-.075.333-.167.116-.167.258-.167c.333 0 1.076-.742 1.076-1.075 0-.142.075-.258.166-.258s.167-.15.167-.333.075-.334.167-.334c.11 0 .166-10.194.166-30.25s-.056-30.25-.166-30.25c-.092 0-.167-.189-.167-.421 0-.47-1.316-1.912-1.746-1.912-.14 0-.254-.075-.254-.167 0-.091-.225-.166-.5-.166s-.5-.075-.5-.167-.375-.167-.833-.167c-.459 0-.834.075-.834.167M43.5 35c0 .092-.15.167-.333.167s-.334.075-.334.166-.12.167-.266.167c-.271 0-1.234.918-1.234 1.177 0 .078-.17.313-.378.524-.209.21-.561.645-.784.966s-.54.704-.705.853c-.165.148-.299.338-.299.423s-.3.485-.667.89-.667.804-.667.885c0 .082-.225.358-.5.615s-.5.557-.5.667-.225.41-.5.667-.5.54-.5.63-.3.472-.666.85-.667.768-.667.866c0 .099-.3.468-.667.82-.366.353-.666.728-.666.834s-.3.481-.667.833-.667.727-.667.833-.3.481-.666.834c-.367.352-.667.727-.667.833s-.3.481-.667.833c-.366.353-.666.728-.666.834s-.3.481-.667.833-.667.727-.667.833-.3.481-.666.834c-.367.352-.667.727-.667.833s-.3.481-.667.833c-.366.353-.666.724-.666.825s-.338.522-.75.934c-.413.413-.75.815-.75.895s-.338.502-.75.939c-.413.436-.75.857-.75.934s-.3.449-.667.827-.667.755-.667.839-.256.408-.569.721-.618.723-.678.911-.173.342-.253.342c-.079 0-.193.154-.252.342-.06.188-.365.598-.678.911s-.57.647-.57.743-.225.409-.5.697c-.664.696-.64.828.334 1.823.458.468.833.956.833 1.084s.059.233.131.233.262.223.422.494c.161.272.386.591.5.709s.39.476.613.797.614.783.869 1.026c.256.243.465.53.465.638s.3.484.667.836c.366.353.666.713.666.801 0 .087.3.468.667.846s.667.753.667.833c0 .081.3.456.666.834s.667.754.667.836c0 .083.375.533.833 1.001.459.468.834.932.834 1.03s.3.467.666.819c.367.353.667.728.667.834s.3.481.667.833c.366.352.666.727.666.833s.3.481.667.834c.367.352.667.721.667.82s.3.488.666.866.667.761.667.85c0 .09.225.373.5.63s.5.556.5.664.3.484.667.836c.366.353.666.713.666.801 0 .087.3.468.667.846s.667.768.667.867.3.467.666.82.667.712.667.8.3.469.667.846c.366.378.666.77.666.87 0 .101.225.393.5.65s.5.534.5.616.3.479.667.884.667.798.667.873c0 .399 1.923 1.961 2.414 1.961.139 0 .252.075.252.166 0 .098.556.167 1.334.167.777 0 1.333-.069 1.333-.167 0-.091.15-.166.333-.166s.334-.075.334-.167.115-.167.255-.167c.332 0 1.411-1.079 1.411-1.411 0-.14.075-.255.167-.255s.167-.3.167-.667.075-.667.166-.667.167-.187.167-.416-.075-.417-.167-.417c-.091 0-.166-.263-.166-.583 0-.321-.075-.584-.167-.584s-.167-.12-.167-.266-.225-.477-.5-.734-.5-.557-.5-.666c0-.11-.225-.41-.5-.667s-.5-.509-.5-.559-.168-.276-.375-.5c-1.341-1.458-1.625-1.798-1.625-1.944 0-.09-.3-.472-.666-.85s-.667-.761-.667-.85c0-.09-.225-.373-.5-.63s-.5-.541-.5-.63c0-.09-.281-.456-.625-.813s-.731-.854-.861-1.103c-.131-.25-.299-.454-.375-.454s-.139-.085-.139-.189-.135-.31-.3-.458-.481-.533-.703-.853a12 12 0 0 0-.866-1.084c-.254-.275-.463-.556-.464-.624 0-.069-.3-.443-.667-.833s-.667-.765-.667-.835c0-.128-.596-.847-1.291-1.559-.207-.211-.375-.425-.375-.476 0-.085-.625-.834-1.125-1.351-.115-.118-.209-.263-.209-.322s-.093-.204-.208-.322c-.549-.566-1.126-1.271-1.133-1.385-.005-.069-.304-.426-.666-.793-.361-.366-.657-.722-.658-.791s-.301-.443-.668-.832c-.367-.39-.667-.765-.667-.834s-.3-.435-.666-.813-.667-.758-.667-.846-.304-.452-.677-.81l-.676-.65.343-.368c.189-.203.343-.429.343-.503s.3-.454.667-.843.667-.764.667-.833.3-.444.666-.834.667-.768.667-.841.169-.306.375-.517c.601-.614 1.292-1.425 1.292-1.515 0-.101.452-.659.958-1.183.206-.214.375-.428.375-.477 0-.082.111-.227.833-1.085.138-.163.438-.542.667-.841.229-.3.529-.675.667-.834.137-.159.437-.537.666-.84s.586-.722.792-.931.375-.422.375-.473c0-.084.624-.834 1.125-1.35.115-.118.208-.257.208-.309 0-.086.344-.536.756-.99.095-.105.356-.453.581-.773.405-.579.564-.781 1.288-1.639.206-.245.375-.501.375-.569 0-.069.3-.434.667-.812s.667-.761.667-.85c0-.09.225-.373.5-.63s.5-.556.5-.664.3-.484.666-.836c.367-.353.667-.713.667-.801 0-.087.3-.468.667-.846.366-.378.666-.762.666-.853 0-.092.3-.476.667-.854.367-.377.667-.773.667-.88s.15-.301.333-.433.333-.411.333-.62.075-.38.167-.38c.095 0 .167-.497.167-1.157 0-.636-.075-1.203-.167-1.26s-.167-.232-.167-.389c0-.158-.15-.395-.333-.527s-.333-.374-.333-.537-.113-.297-.25-.297c-.138 0-.25-.075-.25-.166s-.113-.167-.25-.167c-.138 0-.25-.075-.25-.167 0-.091-.15-.166-.334-.166-.183 0-.333-.075-.333-.167 0-.099-.611-.167-1.5-.167s-1.5.068-1.5.167m19.75 0c-.057.092-.249.167-.427.167-.177 0-.323.056-.323.126 0 .069-.221.223-.49.343-.27.119-.588.437-.708.707-.119.27-.273.49-.343.49-.069 0-.126.146-.126.324s-.075.37-.166.426c-.206.128-.221 1.649-.02 2.044.081.159.244.496.362.749.359.768 1.562 1.79 2.106 1.79.201.001.412.076.468.167.068.109 5.054.167 14.417.167s14.349-.058 14.417-.167c.056-.091.272-.166.478-.166.207 0 .536-.15.733-.334.197-.183.432-.333.522-.333s.297-.225.46-.5c.162-.275.354-.5.426-.5s.131-.187.131-.417.075-.416.166-.416c.094 0 .167-.473.167-1.084s-.073-1.083-.167-1.083c-.091 0-.166-.15-.166-.333s-.075-.334-.167-.334-.167-.116-.167-.257c0-.334-.742-1.076-1.075-1.076-.142 0-.258-.075-.258-.167 0-.091-.15-.166-.333-.166s-.334-.075-.334-.167c0-.11-5.024-.167-14.74-.167-9.647 0-14.776.058-14.843.167m86.25 0c0 .092-.189.167-.421.167-.463 0-1.912 1.312-1.912 1.731 0 .133-.089.27-.196.306-.258.086-.243 2.844.015 2.93.099.033.181.169.181.302 0 .321 1.086 1.397 1.411 1.397.14 0 .255.075.255.167s.225.167.5.167.5.075.5.166c0 .111 9.834.167 29.167.167s29.167-.056 29.167-.167c0-.091.225-.166.5-.166s.5-.075.5-.167.115-.167.255-.167c.332 0 1.411-1.079 1.411-1.411 0-.14.075-.255.167-.255.099 0 .167-.611.167-1.5s-.068-1.5-.167-1.5c-.092 0-.167-.115-.167-.255 0-.429-1.441-1.745-1.912-1.745-.232 0-.421-.075-.421-.167 0-.11-9.944-.167-29.5-.167s-29.5.057-29.5.167m129 0c0 .092-.15.167-.333.167s-.334.075-.334.166-.116.167-.257.167c-.334 0-1.076.742-1.076 1.076 0 .141-.075.257-.167.257-.091 0-.166.15-.166.334 0 .183-.075.333-.167.333-.094 0-.167.472-.167 1.083s.073 1.084.167 1.084c.092 0 .167.187.167.416 0 .23.075.417.166.417s.167.09.167.199c0 .274.845 1.134 1.115 1.134.12 0 .218.075.218.167s.221.167.49.167c.27 0 .537.075.594.166.066.108 3.418.167 9.51.167h9.406v27.75c0 18.389.057 27.75.167 27.75.092 0 .167.225.167.5s.075.5.166.5.167.116.167.258c0 .29.725 1.075.992 1.075.096 0 .175.057.176.125.001.069.203.219.45.334.539.25 3.382.285 3.382.041 0-.091.122-.166.272-.166s.394-.137.542-.304.401-.351.561-.411.292-.207.292-.327.15-.326.333-.458c.196-.141.333-.432.333-.704 0-.255.075-.463.167-.463.11 0 .167-9.361.167-27.75V42.5h9.5c6.222 0 9.5-.058 9.5-.167 0-.091.225-.166.5-.166s.5-.075.5-.167.093-.167.208-.167c.323 0 1.125-.756 1.125-1.061 0-.149.075-.272.167-.272.091 0 .166-.15.166-.333s.075-.334.167-.334c.095 0 .167-.5.167-1.166 0-.667-.072-1.167-.167-1.167-.092 0-.167-.19-.167-.422 0-.47-.991-1.578-1.411-1.578-.14 0-.255-.075-.255-.167 0-.091-.15-.166-.334-.166-.183 0-.333-.075-.333-.167 0-.11-7.944-.167-23.5-.167s-23.5.057-23.5.167m86.75 6.667c.057.091.507.166 1 .166s.943.075 1 .167.357.167.667.167.61.075.666.166.282.167.5.167.444.075.5.167c.057.091.282.166.5.166s.444.075.5.167c.057.092.286.167.51.167s.407.075.407.166.15.167.333.167.334.075.334.167c0 .091.15.166.333.166s.333.075.333.167.15.167.334.167c.183 0 .333.075.333.166s.116.167.257.167.418.15.615.333.456.334.576.334.219.075.219.166.113.167.251.167c.139 0 .487.225.775.5s.592.5.676.5c.17 0 3.964 3.744 3.964 3.912 0 .058.225.346.5.639.274.293.499.592.5.664 0 .073.15.293.334.49.183.197.333.456.333.576 0 .121.063.219.14.219s.321.356.542.792c.221.435.458.816.526.847.069.03.125.162.125.292s.075.236.167.236.167.187.167.416c0 .23.075.417.166.417s.167.15.167.333.075.334.167.334c.091 0 .166.145.166.323s.075.37.167.427.167.286.167.51c0 .223.075.406.166.406s.167.225.167.5.075.5.167.5c.091 0 .166.225.166.5s.075.5.167.5.167.3.167.667.075.667.166.667.167.375.167.833.075.833.167.833c.097 0 .166.556.166 1.334 0 .733.057 1.333.125 1.333.069 0 .125.862.125 1.917 0 1.054-.056 1.916-.125 1.916-.068 0-.125.675-.125 1.5 0 .889-.068 1.5-.166 1.5-.092 0-.167.375-.167.834s-.075.833-.167.833c-.091 0-.166.3-.166.667 0 .366-.075.666-.167.666s-.167.225-.167.5-.075.5-.166.5-.167.225-.167.5-.075.5-.167.5c-.091 0-.166.148-.166.329 0 .18-.15.595-.334.921-.183.327-.333.704-.333.839 0 .134-.075.245-.167.245-.091 0-.166.143-.166.319s-.057.345-.125.375c-.069.031-.313.431-.542.889s-.548.979-.708 1.156c-.161.178-.292.387-.292.464 0 .172-1.614 2.279-2.031 2.65-.166.148-.302.318-.302.377 0 .164-2.474 2.603-2.64 2.603-.079 0-.363.206-.63.458s-.691.565-.942.695c-.25.13-.455.299-.455.375s-.133.139-.297.139-.404.15-.536.333-.374.333-.537.333-.297.075-.297.167-.15.167-.333.167-.333.075-.333.166-.15.167-.334.167c-.183 0-.333.061-.333.137 0 .075-.375.238-.833.363-.459.125-.834.288-.834.363s-.225.137-.5.137-.5.075-.5.167c0 .091-.183.166-.406.166s-.454.075-.51.167c-.057.092-.357.167-.667.167s-.61.075-.667.166c-.056.092-.458.167-.893.167-.434 0-.867.077-.96.17-.197.197-7.302.242-7.614.048-.109-.067-.573-.184-1.032-.26-1.742-.289-1.923-.332-2.012-.476-.05-.082-.35-.149-.665-.149s-.574-.075-.574-.166-.145-.167-.323-.167-.37-.075-.427-.167c-.056-.091-.286-.166-.51-.166-.223 0-.406-.075-.406-.167s-.15-.167-.334-.167c-.183 0-.333-.075-.333-.166s-.15-.167-.333-.167-.334-.075-.334-.167c0-.091-.097-.166-.216-.166-.307 0-1.114-.392-1.116-.542 0-.069-.151-.125-.334-.125s-.334-.062-.334-.139c0-.076-.206-.244-.458-.373-.252-.13-.58-.367-.728-.529-.148-.161-.357-.292-.464-.292s-.445-.244-.751-.542a16 16 0 0 0-1.093-.958c-.756-.588-1.506-1.283-1.506-1.398 0-.104-.593-.793-1.458-1.694-.298-.31-.542-.627-.542-.705s-.131-.286-.291-.464a4.4 4.4 0 0 1-.542-.823c-.137-.275-.287-.537-.333-.583s-.239-.383-.43-.75l-.541-1.042c-.459-.879-.529-1.05-.529-1.289 0-.139-.075-.252-.167-.252s-.167-.15-.167-.334c0-.183-.075-.333-.166-.333s-.167-.225-.167-.5-.075-.5-.167-.5c-.091 0-.166-.183-.166-.407s-.075-.453-.167-.51-.167-.323-.167-.593-.075-.49-.166-.49-.167-.3-.167-.667c0-.366-.075-.666-.167-.666-.091 0-.166-.369-.166-.82s-.067-.844-.149-.875c-.181-.067-.487-6.472-.31-6.472.069 0 .125-.596.125-1.323 0-.728.075-1.37.167-1.427s.167-.511.167-1.01.075-.907.166-.907.167-.3.167-.666.075-.667.167-.667c.091 0 .166-.225.166-.5s.075-.5.167-.5.167-.225.167-.5.075-.5.166-.5.167-.225.167-.5.075-.5.167-.5c.091 0 .166-.15.166-.333s.075-.334.167-.334.167-.15.167-.333.075-.333.166-.333.167-.15.167-.334c0-.183.075-.333.167-.333.091 0 .166-.15.166-.333s.075-.334.167-.334.167-.15.167-.333.066-.333.147-.333.189-.132.24-.292c.123-.39.665-1.278.821-1.347.069-.031.125-.129.125-.218s.225-.401.499-.694c.275-.293.5-.59.5-.66.001-.177 3.464-3.623 3.641-3.623.079 0 .379-.225.667-.5s.585-.5.66-.5.282-.131.46-.292.679-.472 1.115-.692c.435-.221.791-.465.791-.542s.15-.14.334-.14c.183 0 .333-.075.333-.167s.15-.167.333-.167.334-.075.334-.166.183-.167.406-.167.454-.075.51-.167c.057-.091.249-.166.427-.166s.323-.075.323-.167.225-.167.5-.167.5-.075.5-.166.225-.167.5-.167.5-.075.5-.167c0-.091.296-.166.657-.166s.703-.075.76-.167.417-.168.802-.169c.384-.002.811-.075.948-.164.338-.219 7.115-.219 7.25 0M63.333 64c0 .092-.161.167-.358.167-.456 0-2.142 1.689-2.142 2.146 0 .184-.075.38-.166.437s-.167.511-.167 1.01.075.907.167.907c.091 0 .166.15.166.333s.075.333.167.333.167.115.167.256c0 .14.26.515.577.833.318.318.693.578.834.578.14 0 .255.075.255.167 0 .11 5.167.166 15.167.166s15.167-.056 15.167-.166c0-.092.115-.167.255-.167.332 0 1.411-1.079 1.411-1.411 0-.141.075-.256.167-.256s.167-.15.167-.333.075-.333.166-.333c.093 0 .167-.441.167-.99 0-.545-.075-1.037-.167-1.094-.091-.056-.166-.213-.166-.348 0-.136-.263-.509-.584-.829-.32-.321-.583-.656-.583-.745s-.112-.161-.25-.161-.25-.075-.25-.167c0-.091-.146-.166-.323-.166s-.37-.075-.427-.167c-.067-.109-5.168-.167-14.76-.167-9.66 0-14.657.057-14.657.167m116 0c0 .092-.152.167-.337.167-.385 0-1.829 1.367-1.829 1.731 0 .133-.086.27-.191.305-.257.085-.25 3.011.007 3.097.101.034.184.17.184.303 0 .321 1.086 1.397 1.411 1.397.14 0 .255.075.255.167 0 .11 5.167.166 15.167.166s15.167-.056 15.167-.166c0-.092.112-.167.25-.167.137 0 .25-.075.25-.167 0-.091.103-.166.229-.166.127 0 .323-.225.437-.5s.273-.5.354-.5.146-.15.146-.334c0-.183.075-.333.167-.333.098 0 .167-.583.167-1.417 0-.833-.069-1.416-.167-1.416-.092 0-.167-.115-.167-.255 0-.429-1.441-1.745-1.912-1.745-.232 0-.421-.075-.421-.167 0-.11-4.972-.167-14.583-.167s-14.584.057-14.584.167M93.167 93.5c0 .11-5.196.167-15.253.167-15.63 0-15.524-.004-16.196.61a1.6 1.6 0 0 1-.35.25c-.836.343-1.785 4.14-1.035 4.14.092 0 .167.12.167.268 0 .341 1.399 1.732 1.742 1.732.142 0 .258.075.258.166 0 .111 10.08.167 29.907.167 19.758 0 29.942-.057 30.01-.167.056-.091.213-.166.348-.166.325 0 1.402-1.085 1.402-1.411 0-.141.075-.256.166-.256s.167-.225.167-.5.075-.5.167-.5c.091 0 .166-.333.166-.74s-.075-.787-.166-.843c-.092-.057-.167-.249-.167-.427s-.075-.323-.167-.323c-.091 0-.166-.115-.166-.256 0-.332-1.08-1.411-1.411-1.411-.141 0-.256-.075-.256-.167 0-.091-.375-.166-.833-.166-.459 0-.834-.075-.834-.167 0-.11-4.722-.167-13.833-.167s-13.833.057-13.833.167m86.666 0c0 .092-.25.167-.556.167-.616 0-2.11 1.228-2.11 1.733 0 .147-.075.267-.167.267s-.167.263-.167.585-.093.745-.208.939c-.167.282-.167.368 0 .428.115.042.208.35.208.691 0 .425.104.691.334.857.183.132.333.341.333.465 0 .305.417.701.738.701.144 0 .262.075.262.167s.15.167.333.167.334.075.334.166c0 .11 5.055.167 14.833.167s14.833-.057 14.833-.167c0-.091.115-.166.255-.166.33 0 1.745-1.415 1.745-1.746 0-.14.075-.254.167-.254.099 0 .167-.611.167-1.5s-.068-1.5-.167-1.5c-.092 0-.167-.115-.167-.256 0-.332-1.079-1.411-1.411-1.411-.14 0-.255-.075-.255-.167 0-.091-.221-.166-.49-.166-.27 0-.537-.075-.594-.167-.067-.109-4.974-.167-14.176-.167-9.271 0-14.074.057-14.074.167" fill="#04349c"/><path d="M156.393.463c-.551.536-.893 1.091-.893 1.451 0 .139-.075.253-.167.253-.109 0-.166 4.166-.166 12.166s.057 12.167.166 12.167c.092 0 .167.15.167.333s.075.334.167.334c.091 0 .166.089.166.199 0 .274.846 1.134 1.115 1.134.12 0 .219.075.219.167 0 .091.225.166.5.166s.5.075.5.167.444.167 1 .167c.555 0 1-.074 1-.167 0-.092.189-.167.42-.167.519 0 2.246-1.663 2.246-2.163 0-.185.075-.337.167-.337.11 0 .167-4.139.167-12.083S163.11 2.167 163 2.167c-.092 0-.167-.112-.167-.248 0-.263-.298-.684-1.029-1.451-.69-.725-4.667-.729-5.411-.005m-44.81 34.87c-.056.092-.213.167-.347.167-.324 0-1.736 1.42-1.736 1.746 0 .14-.075.254-.167.254-.091 0-.166.183-.166.407s-.075.453-.167.51c-.11.068-.167 7.915-.167 23s.057 22.932.167 23c.092.056.167.325.167.596 0 .818 2.009 2.654 2.904 2.654.225 0 .456.075.512.166.057.092.249.167.427.167s.323-.075.323-.167c0-.091.338-.166.75-.166.413 0 .75-.075.75-.167s.115-.167.255-.167c.33 0 1.745-1.415 1.745-1.745 0-.14.075-.255.167-.255s.167-.22.167-.49c0-.269.072-.535.161-.589.102-.064.124-6.008.059-16.458l-.102-16.359.441.441c.242.242.441.507.441.59s.225.385.5.672.5.599.5.692.058.168.13.168.253.206.402.458.437.646.639.875c.201.23.564.679.806 1s.514.667.606.769c.712.79 1.083 1.241 1.083 1.315 0 .079.639.842 1.125 1.344.115.118.209.263.209.322s.093.204.208.322c.487.502 1.125 1.265 1.125 1.345s.638.843 1.125 1.345c.115.118.208.258.208.311 0 .089.615.829 1.125 1.355.115.118.209.257.209.309 0 .11.434.651.958 1.193.206.214.375.467.375.563s.062.174.139.174c.076 0 .238.186.36.414.121.228.359.458.528.511.168.054.306.211.306.349 0 .139.3.54.667.893.367.352.667.727.667.833s.3.481.666.833c.367.353.667.728.667.834s.3.481.667.833c.366.352.666.729.666.837s.225.406.5.663.5.555.5.663.3.485.667.837.667.721.667.82.3.489.666.867c.367.377.667.79.667.916 0 .127.059.23.131.23s.258.216.414.48.509.721.786 1.017c.276.296.502.603.502.682s.263.406.584.727.583.652.583.735c0 .084.3.462.667.839.366.378.666.749.666.824 0 .076.375.539.834 1.03.458.49.833.96.833 1.042s.3.439.667.791c.366.352.666.759.666.904a.26.26 0 0 0 .256.263c.14 0 .305.131.365.291.061.161.396.567.745.904.349.336.634.699.634.805s.3.481.667.833.667.727.667.833.3.481.666.834c.367.352.667.727.667.833s.3.481.667.833c.366.353.666.728.666.834s.3.481.667.833.667.727.667.833.3.481.666.834c.367.352.667.727.667.833s.3.481.667.833c.366.353.666.727.666.833 0 .261.427.667.702.667.123 0 .333.15.465.334.167.232.431.333.87.333.347 0 .63.075.63.167 0 .091.296.166.657.166s.703-.075.76-.166c.056-.092.249-.167.428-.167.756 0 2.488-1.563 2.488-2.246 0-.231.075-.421.167-.421.11 0 .167-7.972.167-23.583s-.057-23.583-.167-23.583c-.092 0-.167-.15-.167-.334 0-.183-.075-.333-.166-.333s-.167-.116-.167-.258c0-.333-.742-1.075-1.076-1.075-.141 0-.258-.057-.259-.125 0-.069-.203-.219-.45-.334-.536-.249-3.215-.284-3.215-.041 0 .091-.114.166-.254.166-.331 0-1.746 1.415-1.746 1.746 0 .14-.075.254-.167.254-.097 0-.166.556-.166 1.334 0 .777-.07 1.333-.167 1.333-.11 0-.167 5.306-.167 15.583 0 8.571-.043 15.584-.095 15.584-.123 0-.571-.448-.571-.57 0-.105-.418-.631-.921-1.16a10 10 0 0 1-.742-.937c-.223-.321-.524-.696-.671-.833-.146-.138-.446-.513-.666-.834s-.536-.704-.701-.853c-.165-.148-.299-.316-.299-.373 0-.119-.418-.644-.959-1.204-.206-.213-.375-.429-.375-.48 0-.098-.667-.886-1.291-1.524-.207-.211-.375-.444-.375-.517s-.3-.452-.667-.842-.667-.744-.667-.788c0-.1-.455-.661-.958-1.182-.206-.214-.375-.433-.375-.488s-.225-.34-.499-.633c-.275-.293-.5-.594-.5-.67-.001-.076-.301-.435-.668-.799-.366-.363-.666-.739-.666-.836s-.207-.376-.459-.619a4.3 4.3 0 0 1-.695-.9c-.13-.252-.298-.458-.374-.458s-.139-.097-.139-.215c0-.119-.3-.547-.667-.952-.366-.405-.666-.796-.666-.868s-.3-.441-.667-.819-.667-.758-.667-.846-.3-.448-.666-.8-.667-.728-.667-.834-.3-.481-.667-.833c-.366-.352-.666-.712-.666-.8s-.3-.469-.667-.847-.667-.768-.667-.866c0-.099-.3-.468-.666-.82-.367-.353-.667-.728-.667-.834s-.3-.481-.667-.833c-.366-.352-.666-.723-.666-.825s-.338-.521-.75-.934c-.413-.412-.75-.821-.75-.908s-.338-.495-.75-.908c-.413-.412-.75-.829-.75-.926s-.263-.439-.584-.76-.583-.654-.583-.741-.413-.57-.917-1.074-.916-.999-.916-1.1-.3-.472-.667-.824-.667-.729-.667-.837-.225-.406-.5-.663-.5-.534-.5-.615c0-.082-.3-.48-.666-.885s-.667-.799-.667-.876-.187-.327-.417-.556-.416-.48-.416-.558-.225-.382-.5-.677c-.275-.294-.5-.594-.5-.666s-.338-.489-.75-.926c-.413-.437-.75-.863-.75-.947 0-.085-.3-.442-.667-.794s-.667-.724-.667-.826c0-.289-1.038-1.256-1.631-1.519-.295-.13-.535-.293-.535-.362 0-.191-2.965-.152-3.084.04m-.083 71.834c0 .091-.114.166-.254.166s-.59.336-1 .746-.746.86-.746 1-.075.254-.167.254c-.091 0-.166.225-.166.5s-.075.5-.167.5c-.109 0-.167 3.914-.167 11.407 0 7.425.059 11.443.167 11.51.092.057.167.249.167.427 0 .177.075.323.166.323s.167.118.167.263.306.557.68.917l.681.653h4.612l.68-.653c.374-.36.68-.766.68-.903s.094-.28.209-.319c.164-.054.208-2.662.208-12.291s-.044-12.237-.208-12.292c-.115-.038-.209-.183-.209-.322 0-.305-1.461-1.72-1.776-1.72-.123 0-.224-.075-.224-.166 0-.1-.666-.167-1.666-.167s-1.667.067-1.667.167" fill="#fc6404"/></g></svg>