<svg id="Layer_1" data-name="Layer 1" xmlns="http://www.w3.org/2000/svg" viewBox="0 0 433.37 115.98"><defs><style>.cls-2{fill:#294283}.cls-3{fill:#b21f24}</style></defs><path d="M46.02 75v9.66c-.72 1.48-3.22 3.04-4.25 4.45 0 .47 5.9 5.37 6.58 6.77v11.6c-1.15 2.36-6.26 5.74-7.94 8.12H1.08V67.28h37.38c1.62 2.28 6.45 5.47 7.55 7.73ZM12.7 76.93v9.28h19.17c.15 0 2.05-1.93 2.15-2.11.51-.89.58-3.97.29-4.97-.1-.34-1.9-2.21-2.05-2.21M12.7 106.31h21.11c.21 0 2.73-2.67 2.83-2.98.24-.81.21-4.79-.12-5.52-.08-.18-2.51-2.71-2.7-2.71H12.7zM181.6 8.12l18.19 35.31 1.18.26V8.12h11.23v47.94h-18.21l-17.87-34.94-1.49-.63v35.57h-11.24V8.12zM95.02 67.27l9.48 9.48-.07 14.22c-1.92 2.08-3.94 4.05-5.91 6.08-.72.74-1.91.86-1.78 2.1.04.38 3.58 5.47 4.16 6.3 2.28 3.26 5.73 5.69 4.77 10.15H94.63L83.4 100.14H71l-.58.58v14.88H58.8V67.86l.58-.58h35.64Zm-24.6 23.19h18.79c.23 0 3.19-3.05 3.31-3.26.58-1.01.55-5.25.19-6.42-.22-.71-3.26-3.46-3.51-3.46H70.41v13.14Zm48.29-16.76c1.38-1.45 5.17-6.14 6.94-6.41 8.72.57 18.53-.83 27.11-.04.66.06 1.3.03 1.87.45l9.85 9.89-.12 27.94-10.14 9.98-29.55-.12c-1.75-2.39-9.67-8.4-10.06-10.84.81-7.89-1.17-18.27 0-25.85.39-2.51 2.65-3.47 4.1-4.99Zm12.03 4.08-4.14 4.38.19 19.89 4.65 3.86 17.22-.19 3.87-4.25-.19-19.89-4.26-3.86-17.34.07Zm93.08-.46v28.22c-.38.78-9.28 9.77-9.96 9.97l-28.61.1-1.16-.39-9.49-9.47-.39-1.54.1-26.62 10.09-10.03 29.06-.21 1.25.68 9.09 9.29Zm-37.57 4.25c-.19.27-.53.41-.41.92.47 5.74-.55 12.23 0 17.87.08.78.13.73.41 1.31.44.91 3.58 3.95 4.54 4.17 2.01.45 14.28.41 16.6.1 1.58-.21 4.68-3.55 4.85-5.22.58-5.83-.47-12.63-.03-18.57l-3.87-4.25-17.61-.19c-.46.09-4.1 3.36-4.46 3.86ZM112.53 8.2h29.67l9.76 9.59.14 28.35-10.03 9.71-29.54.13-9.76-9.59-.12-28.33zm5.81 10.05-4.14 4.38.19 19.89 4.66 3.85 17.6-.18 3.87-4.25-.19-19.89-4.26-3.86-17.73.07ZM44.86 48.32l-7.94 7.73H.7v-9.66h30.41c.43 0 2.05-2.1 2.15-2.88.32-2.42.23-4.81-1.96-6.2l-22.57-.28L.12 28.6 0 16.12l7.86-8h34.67v10.05H14.06c-.15 0-2.05 1.93-2.15 2.11-1.12 1.94-.46 5.76 1.98 6.57l22.56.29c.57.17 8.05 7.7 8.41 8.43v12.76Zm202.2 37.89h8.91l13.37-18.94h11.43l-.22 4.23-14.78 19.54 16.1 20.55.44 4h-12.2l-14.72-19.33h-7.74l-.59.58v18.75h-11.62V67.27h11.04l.58.58zM230.79 8.12l12.77 20.3c.72.9 1.9.79 2.51-.22l12.8-20.08h10.65l-.21 3.46c-1.67 4.13-19.16 27.62-19.16 29.59v14.88h-11.62V40.78c0-1.7-17.07-24.68-18.68-28.52l-.69-4.15h11.62Zm-134.03 0v10.05h-18.2v37.89H66.94V18.17H48.73V8.12z" style="fill:#fff"/><path class="cls-2" d="M408.99 96.65v2.32h-13.56v6.18h10.46v2.32h-10.46v6.19h13.94v2.32h-16.65V96.65z"/><path d="M347.39 96.65v2.32h-11.43c-.43 0-1.71 1.78-1.78 2.51-.52 5.43 8.32 2.46 11.38 3.37.34.1 2.64 2.31 2.78 2.63.34.74.36 4.72.12 5.52-.09.31-2.62 2.98-2.83 2.98h-13.75v-2.32h12.2c.54 0 1.68-1.9 1.76-2.49.9-6.58-7.46-3.12-10.98-4.16-.34-.1-2.64-2.31-2.78-2.63-.34-.74-.36-3.96-.12-4.75.09-.31 2.62-2.98 2.83-2.98h12.59Z" style="fill:#284182"/><path class="cls-2" d="m379.93 115.98-2.67-.04-1.94-5.13-10.83-.19-2.04 5.31-2.66.05c.86-2.35 7.22-18.59 8.13-19.14.68-.41 3.45-.37 4.08.19l7.94 18.95Zm-5.81-7.73c-1.2-2.59-2.11-5.87-3.47-8.33-.24-.43-.28-1.05-.98-.96l-4.07 9.28h8.52Zm-54.23-11.6v2.32h-12.78v6.96h10.07v2.32h-10.07v7.73h-2.71V96.65z"/><path class="cls-3" d="M360.92.32c.33.23.62.58.86.92 1.16 1.68 2.4 4.6 3.19 6.96.98 2.52 1.02 5.2 1.12 7.89.05 1.33.86 1.93 2.16 1.88 5.17-.04 10.44-.62 15.55.49 4.34.68 8.8.46 13.15 1.24.8.11 6.16 1.86 3.07 1.55-4.17-.81-9.91-.12-13.6 1.93-3.49 2-2.45 5.36-.46 8.06 3.95 5.24 10.84 7.86 17.07 9.37.96.2 3.97.53 2.76 1.28-1.33.5-2.7.27-4.17.18-3.15-.32-6.28-.95-9.31-1.86-4.4-1.23-8.03-3.94-11-7.33-3.9-4.31-6.82-9.91-12.27-12.32-1.28-.57-2.75-1.03-3.57.42-2.8 5.09-5.68 6.81-10.41 9.71-.59.43-1.61.98-1.35 1.8.36.84 1.28 1.5 1.91 2.18 1.42 1.47 2.76 2.18 4.18 3.43 1.14 1.03 2.06 2.41 3.31 3.33.99.72 2.32 1.08 3.36 1.7.47.26.91.55 1.4.77 2.93 1.15 6.26.32 9.12-.45.81-.31 1.64.04 1.36 1.15-.21.86-.91 1.68-1.66 2.31-6.69 4.96-18.53 3.56-26.07 1.46-1.71-.45-3.58-1.16-5.35-.95-.93.14-1.6 1.09-1.86 1.99-.36 1.04-.06 2.15.3 3.34.3.95.62 2 1.11 2.85.67 1.24 2.23 1.53 3.57 2.26 1.83 1.09 2.88.9 4.56-.52 1.42-1.08 2.7-2.39 4.24-3.23 1.42-.66 2.83-1.56 4.23-2.14 9.56-3.24 18.58 2.65 28.16.09 1.99-.49 3.63-1.69 5.61-2.04 1.33 0 0 1.52-.39 1.95-1.14 1.38-3.31 1.94-4.79 3-.98.97 2.26.78 1.61 1.81-.25.32-.71.56-1.11.74-1.08.47-2.46 1.14-3.44 1.78-1.21.76-1.93 2.05-2.76 3.19-1.09 1.58-2.29 2.42-4.23 3.21-2.11.88-4.32 1.82-6.61 1.79-1.32-.02-2.65.4-3.94.32-1.72-.24-2.66.36-3.49 1.86-1.8 3.1-3.71 5.97-6.75 8.06-2.7 2.01-6.29 3.13-9.4 1.37-10.21-6.35-17.76-6.65-29.41-5.32-5.52.7-11.21 1.82-15.85-2.12-1.21-.96-4.11-4.33-1.79-5.4 1.09-.51 3.04-1.05 4.41-1.5 2.1-.61.53-1.73-.73-2.04-5.08-1.15-11.77-.52-15.62-4.67-.72-.8-1.3-1.81-1.94-2.64-.48-.58-1.1-1.28-1.65-1.94-4.36-4.99 5.45-7.02 8.45-8.89 1.13-.58 1.83-1.56 2.81-2.32 1.88-1.31 4.21-2.07 6.34-2.98 8.1-2.7 8.81-9.95 15.48-14.4 5.02-3.46 10.29-4.47 15.48-6.89 4.87-2.22 8.87-5.59 12.37-9.52 2.69-2.94 5.3-6.21 9.06-7.75 1.31-.48 2.51-1.11 3.59-.44l.04.03Zm-5.67 13.97c.57.54.29 1.62.42 2.54.14 1.46.81 2.87 1.87 3.91.91.68 2.26 1.25 3.26 1.05 1.23-.3 2.76-1.11 3.23-2.28.54-1.35.78-2.84.66-4.24-.5-3.69-1.43-8.42-5.26-9.88-4.66-1.45-9.6 3.24-11.62 7.13-1 2.01-2.23 3.87-2.2 5.99.03.78.23 1.74.49 2.6.1.69 2.12 4.13.37 3.58-.59-.26-1.08-.76-1.57-1.19-.93-.87-2.04-1.59-3.26-1.99-4.38-1.4-10.04-.86-13.97 1.34-2.46 1.9.24 4.47 1.85 5.9 2.07 2.29-1.92.71-2.87.57-3.24-.79-5.83.09-7.11 3.3-.35.63-.8 1.19-1.51.95-.49-.16-.93-.52-1.46-.55-.4-.03-.82.12-1.19.3-.84.43-1.68.86-2.38 1.58-1 .98-1.58 2.1-1.32 3.42 0 .2-.04.37-.19.5-.53.41-1.43.37-2.09.47a7.5 7.5 0 0 0-3.05.98c-2.36 1.13-3.31 3.22-.29 4.33 2.51.76 5.19.8 7.78 1.25 2.76.46 5.5.73 7.66 2.58.61.46 1.49 1.6.15 1.48-2.44-.4-4.62-1.57-7.16-1.53-4.24-.05-8.18 1.17-12.5.74-1.88-.15-3.62-.87-5.43-1.33-1.1-.27-1.89-.4-1.83.81.02.71-.19 1.43-.69 1.96-.61.68-1.36 1.19-1.54 1.87-.28 1.22.72 2.3 1.72 2.9 2.24 1.43 5.26.66 7.66.91 2.2.16 4.41 1.06 6.63.94 5.72-.77 10.48-1.88 15.87.85.57.29 2.64 1.06 1.91 1.83-.75.42-1.76.06-2.56.22-.43.07-.8.22-1.22.41-3.03 1.33-6.21 2.28-9.15 3.78-1.13.64-2.76 1.18-3.31 2.44-.45 1.93 1.93 3.42 3.42 4.13 3.13 1.22 6.43 1.55 9.72 1.21 2.62.09 4.86-1.12 7.22-2.41 1.01-.53 1.89-1.04 2.93-1.41.82-.28 1.59-.31 2.2-.84 1.1-1.03 1.34-2.9 1.73-4.23.31-1.54.31-3.45.05-4.89-.31-1.14-.64-2.16-.69-3.38-.07-.73-.12-1.5-.17-2.23-.16-1.64.28-2.39.55-3.67.2-1.14-.8-1.13-1.71-1.02-2.9.17-6 .03-8.61-1.27-1.13-.59-2.7-1.42-3.82-2.1-1.19-.7-1.82-1.87-3.02-2.52-1.43-.79-3.66-1.54-5.22-2.15-.3-.15-.82-.3-.85-.6.05-.13.13-.13.24-.19 1.39-.52 2.86-.13 4.37-.14 1.55-.08 3.13-.44 4.47-1.1.68-.32 1.37-.82 2.09-.94.15-.02.28 0 .4.08.2.15.17.56 0 1.02-.49 1.21-1.2 2.48-.33 3.71.3.48.79.95 1.25 1.37 1.37 1.46 3.36 1.13 5.2 1.18 1.31-.02 2.38.03 3.37-.13 1.23-.27 2.37-.66 3.61-.97 2.08-.64 2.51-2.34 1.25-4.06-.97-1.4-2.06-2.41-3.77-2.97-1.89-.7-3.96-1.06-5.92-1.48-1.22-.29-2.44-.69-3.71-.62-1.43.08-2.73.5-4.06 1.3-1.04.64-2.05 1.35-3.26 1.57-.44.09-.9.17-1.34.27-1.01.21-2.13.65-2.21.27-.05-.17.13-.52.45-.91.64-.79 1.49-1.46 2.29-2.09 1.26-.95 2.52-2.21 3.97-2.61 6.76-.85 15.33 1.34 21.1 4.46 2.3 1.19 5.16 3.23 7.82 2.47 2.34-1.17-.31-4.15-1.43-5.32-2.82-2.91-6.98-3.85-10.69-5.16-.93-.28-1.7-.81-.31-1.21.99-.26 2.02-.27 3.06-.23 1.37.06 2.28.49 3.46.85.77.22 1.51.37 2.24.6 1.49.31 2.81 1.45 4.22 2 1.58.4 1.56-2.42 1.72-3.44.16-2.36-.73-4.52-.75-6.86 0-1.9.31-4.15 1.77-5.49.33-.28.64-.4.86-.28l.03.02Zm16.65 44.45c.81-.31 5.5-.45 3.34.95-.56.4-4.54 2.14-2.84 2.53 1.45.23 2.82-.12 4.13-.57 3.97-.44 5.25-1.61 8.3-4.03.49-.38 1.06-.71 1.59-1 .23-.13.81-.42.6-.62-1.13-.34-2.79 0-4.03-.04-4.2.08-7.96-1.51-12.22-1.4-2.44-.05-6.62.59-4.98 4.02.37.72.96 1.61 1.51 1.82.52.23 1.07-.07 1.53-.32.96-.51 1.98-.98 3-1.33l.06-.02Zm-9.06 9.69c.61-1.51-.84-1.69-1.92-1.95-3.1-.93-6.29-1.58-9.5-2.14-3.35-.67-5.67 1.29-4.14 4.7.54 1.47.8 2.63 1.97 3.32 1.31.57 2.69.93 4.14.97 1.67-.06 3.45-.15 5.04-.68 1.78-.76 3.55-2.42 4.39-4.17l.02-.06Z"/><path class="cls-3" d="M395.29 61.87c2.42 1.14 5.86 4.69 8.38 6.24 1.89 1.16 4.05 1.94 5.98 2.53.55.17 1.06.48 1.65.55-1.25.68-3.36 1.25-4.78 1.35-2.11.15-6.27-1.11-8.17-2.11-1.74-.91-3.7-3.45-5.78-3.03-.24.05-2.05 1.76-2.24 2.04-.49.75-1.54 3.08-1.57 3.96s1.07 2.31 1.91 2.5c1.99.44 4.55.16 6.49-.44 1.66-.52 3.66-1.72 5.72-2.16 3.66-.78 6.35-.04 9.22 2.18 1.7 1.32 5.6 6.13 6.17 8.08.17.59.19 1.09.14 1.69l-1.05-.23c-1.25-1.34-2.71-3.13-4.11-4.26-4.43-3.59-9.69-3.5-14.28-.36-1.38.94-2.92 2.68-4.17 3.53-6.51 4.46-11.18-4.68-15.46-7.97l-10.41-5.39c.28-1.42 2.47-.83 3.55-.98.8-.11 2.44-.32 3.14-.49.19-.05.15-.44.34-.48 4.02-.88 6.46-2.87 10.14-5 3.18-1.84 5.4-3.55 9.2-1.76Z"/><path class="cls-3" d="M415.86 47.19c3.66 1.55 7.32 5.09 11.06 6.73.37.16 2.26.32 2.01.87-.29.65-2.14 1.49-2.83 1.58-2.98.39-5.94-.21-8.68-1.33-1.49-.61-5.93-3.83-7.01-1.75-1.33 2.57-1.62 8.95 2.75 7.54 1.54-.5.73-3.01.83-4.2.68-.63 2.8 2.02 2.92 2.83.09.59-.02 1.22.02 1.82 2.76-.62 5.39-2.7 8.44-2.19 1.59.27 6.97 4.27 7.73 5.73.15.29.34.47.24.86-1.92-.89-4.63-2.25-6.74-2.44-5.3-.49-7.76 3.8-12.26 4.63-7.48 1.38-12.98-3.16-16.37-9.32-.4-.72-2.22-4.58-1.86-5.09.46-.64 2.21.41 2.79.48 2.35.32 4.93 0 6.76-1.59.66-.57 1-1.43 1.55-2 2.88-2.98 4.1-5.1 8.64-3.17Zm-15.92-1.95s.06.28.29.37c.63.25 3.42.72 2.64 1.75-.36.47-4.45.15-5.4.23-5.12.44-14.03 3.32-18.8 1.89-.46-.14-1.08-.69-1.4-1.06-.11-.53 1.27-1.09 1.66-1.24 5.72-2.2 15.17-4.01 21.02-1.94Zm-20.73 35.38c.68.9-3.92 2.4-4.51 2.46-1 .1-3.66.1-4.6-.09s-3.13-1.99-4.19-2.42c-1.81-.74-3.86-.51-5.69.03-.46.14-3.55 1.87-3.55.38 0-.98 1.56-1.23 2.1-1.58.48-.31.69-.94 1.16-1.32 4.7-3.72 9.81.06 14.58 1.48 1.53.46 3.16.66 4.7 1.05Zm-44.42-27.48c-.87 2.76-.29 4.29.1 7.03.09.63.11 3.84-.02 4.37-.04.17-.39.14-.46.36-.08.24 0 .58-.09.83-.81 1.93-3.75 4.02-5.86 3.56-.18-.04-1.06-.43-.91-.78.17-.44 1.66-1.76 2.03-2.39.7-1.19 1.49-3.1 1.64-4.47.26-2.38-.04-4.73.49-7.05.04-.18.44-.15.48-.33.27-1.22.42-1.95 1.24-3.13.46-.66 1.14-1.17 1.59-1.84l.58.36c-.22 1.17-.43 2.35-.78 3.49Z"/></svg>