<svg viewBox="0 0 335.76 21.33" xmlns="http://www.w3.org/2000/svg"><path d="M36.58 19.08c0 .62-.22 1.15-.65 1.59-.44.44-.97.65-1.59.65-.31 0-.59-.06-.84-.19a3.2 3.2 0 0 1-.7-.47c-.19-.19-.33-.34-.42-.47-1.28-1.59-2.6-2.84-3.95-3.74-1.36-.9-2.78-1.59-4.28-2.06s-3.08-.76-4.75-.87-3.45-.16-5.36-.16H4.49v5.71c0 .62-.23 1.15-.68 1.59s-.98.65-1.57.65c-.62 0-1.15-.22-1.59-.65-.44-.44-.65-.97-.65-1.59V7.06c0-.94.17-1.78.51-2.53s.78-1.39 1.31-1.92a5.9 5.9 0 0 1 1.82-1.24c.69-.3 1.37-.44 2.06-.44h24.42c.87 0 1.7.16 2.48.49s1.47.77 2.06 1.33 1.06 1.22 1.4 1.96q.51 1.125.51 2.43c0 .62-.22 1.15-.65 1.59q-.66.66-1.59.66c-.93 0-1.15-.22-1.59-.66s-.65-.97-.65-1.59c0-.47-.16-.86-.49-1.17s-.71-.5-1.15-.56H5.94c-.41 0-.73.1-.98.3s-.41.44-.47.72v2.43h9.54c2.74 0 5.22.16 7.44.47 2.21.31 4.22.82 6.01 1.52s3.4 1.62 4.82 2.76 2.69 2.53 3.81 4.19c.31.41.47.83.47 1.26Zm4.68-15.9c0-.62.22-1.15.65-1.59s.97-.65 1.59-.65h33.17c.62 0 1.15.22 1.59.65.44.44.65.97.65 1.59s-.22 1.15-.65 1.59c-.44.44-.97.65-1.59.65H43.5c-.62 0-1.15-.22-1.59-.65-.44-.44-.65-.97-.65-1.59m5.7 18.15c-.69 0-1.37-.15-2.06-.44-.69-.3-1.29-.71-1.82-1.24s-.97-1.17-1.31-1.92-.51-1.59-.51-2.53v-4.21c0-.84.24-1.4.73-1.68.48-.28 1.24-.42 2.27-.42h31.39q.93 0 1.59.66c.44.44.65.97.65 1.59s-.22 1.15-.65 1.59c-.44.44-.97.65-1.59.65H45.76v2.29c0 .31.13.58.4.82.26.23.62.35 1.05.35h29.47q.93 0 1.59.66c.44.44.65.97.65 1.59s-.22 1.15-.65 1.59c-.44.44-.97.65-1.59.65h-29.7Zm65.16-4.49c1.06 0 1.93-.19 2.62-.58.68-.39 1.22-.87 1.61-1.43s.65-1.18.79-1.85.21-1.29.21-1.85-.07-1.18-.21-1.85a5.2 5.2 0 0 0-.79-1.85c-.39-.56-.93-1.04-1.61-1.43-.69-.39-1.56-.58-2.62-.58H85.83c-.62 0-1.15-.22-1.59-.65-.44-.44-.65-.97-.65-1.59s.22-1.15.65-1.59.97-.65 1.59-.65h27.27c1.34 0 2.54.31 3.6.94 1.06.62 1.96 1.43 2.71 2.41q1.125 1.47 1.71 3.27c.39 1.2.58 2.39.58 3.58s-.19 2.32-.56 3.51a11.1 11.1 0 0 1-1.62 3.23c-.7.97-1.55 1.77-2.55 2.41s-2.14.99-3.41 1.05H85.82c-.62 0-1.15-.22-1.59-.65-.44-.44-.65-.97-.65-1.59v-7.95c0-.62.22-1.15.65-1.59q.66-.66 1.59-.66c.93 0 1.15.22 1.59.66s.65.97.65 1.59v5.71h24.04Zm50.85 2.24q0 .93-.66 1.59c-.66.66-.97.65-1.59.65-.31 0-.59-.06-.84-.19s-.48-.28-.7-.47c-.19-.19-.33-.34-.42-.47-1.28-1.59-2.6-2.84-3.95-3.74s-2.78-1.59-4.28-2.06-3.08-.76-4.75-.87-3.46-.16-5.36-.16h-9.54v5.71c0 .62-.23 1.15-.68 1.59s-.98.65-1.57.65c-.62 0-1.15-.22-1.59-.65q-.66-.66-.66-1.59V7.06c0-.94.17-1.78.51-2.53s.78-1.39 1.31-1.92 1.14-.94 1.82-1.24c.69-.3 1.37-.44 2.06-.44h24.42c.87 0 1.7.16 2.48.49s1.47.77 2.06 1.33 1.06 1.22 1.4 1.96q.51 1.125.51 2.43c0 .62-.22 1.15-.65 1.59q-.66.66-1.59.66c-.93 0-1.15-.22-1.59-.66s-.65-.97-.65-1.59c0-.47-.16-.86-.49-1.17s-.71-.5-1.15-.56H132.3c-.41 0-.73.1-.98.3s-.41.44-.47.72v2.43h9.54c2.74 0 5.22.16 7.44.47 2.21.31 4.22.82 6.01 1.52s3.4 1.62 4.82 2.76 2.69 2.53 3.81 4.19c.31.41.47.83.47 1.26Zm8.65 1.41c-.47.56-1.04.84-1.73.84-.62 0-1.15-.22-1.59-.65q-.66-.66-.66-1.59c0-.56.16-1.01.47-1.36l11.37-15.3c.53-.72 1.23-1.3 2.1-1.75s1.81-.68 2.81-.68c.94 0 1.82.2 2.67.61.84.41 1.53.97 2.06 1.68l11.37 15.2c.19.22.34.46.47.72.12.27.19.55.19.87 0 .62-.22 1.15-.65 1.59-.44.44-.97.65-1.59.65-.75 0-1.34-.3-1.78-.89l-10.9-14.55c-.22-.25-.49-.52-.82-.82s-.66-.44-1.01-.44-.68.15-1.01.44c-.33.3-.58.57-.77.82l-10.99 14.59Zm33.03-9.36c0-1.18.19-2.38.58-3.58q.585-1.8 1.71-3.27c1.125-1.47 1.65-1.79 2.71-2.41s2.26-.94 3.6-.94h27.27c.62 0 1.15.22 1.59.65.44.44.65.97.65 1.59s-.22 1.15-.65 1.59c-.44.44-.97.65-1.59.65h-26.29c-1.09 0-1.97.2-2.64.58-.67.39-1.2.87-1.59 1.43a5 5 0 0 0-.8 1.85c-.14.67-.21 1.29-.21 1.85s.07 1.18.21 1.85.41 1.29.8 1.85.92 1.04 1.59 1.43 1.55.58 2.64.58h26.29q.93 0 1.59.66c.44.44.65.97.65 1.59s-.22 1.15-.65 1.59c-.44.44-.97.65-1.59.65h-27.74c-1.28 0-2.42-.31-3.42-.94-1-.62-1.85-1.43-2.55-2.41s-1.24-2.08-1.61-3.3-.56-2.4-.56-3.56Zm46.64 9.55c-.44.44-.97.65-1.59.65s-1.15-.22-1.59-.65q-.66-.66-.66-1.59V3.18q0-.93.66-1.59c.44-.44.97-.65 1.59-.65s1.15.22 1.59.65c.44.44.65.97.65 1.59v15.9c0 .62-.22 1.15-.65 1.59Zm37.84-19.09c.44-.44.97-.65 1.59-.65s1.15.22 1.59.65c.44.44.65.97.65 1.59v13.61c0 1.28-.43 2.35-1.29 3.23-.86.87-1.93 1.31-3.2 1.31-.44 0-.87-.06-1.29-.19-.42-.12-.8-.3-1.15-.51l-21.42-13.1c-.59-.34-1.08-.62-1.47-.82q-.585-.3-.96-.3c-.47 0-.76.3-.89.89-.12.59-.19 1.45-.19 2.57v9.21c0 .62-.22 1.15-.65 1.59-.44.44-.97.65-1.59.65s-1.15-.22-1.59-.65q-.66-.66-.66-1.59V5.47c0-1.28.43-2.35 1.29-3.23.86-.87 1.93-1.31 3.2-1.31.44 0 .87.06 1.29.19.42.12.8.3 1.15.51l21.42 13.1c.59.34 1.08.62 1.47.82s.71.3.96.3c.47 0 .76-.3.89-.89.12-.59.19-1.45.19-2.57V3.18c0-.62.22-1.15.65-1.59Zm20.86 9.54c0-.62.22-1.15.65-1.59s.97-.66 1.59-.66h17.92c.78 0 1.51.15 2.2.44.69.3 1.29.7 1.8 1.22s.91 1.12 1.19 1.82q.42 1.05.42 2.22v1.03q0 1.17-.42 2.22c-.28.7-.68 1.31-1.19 1.82s-1.12.92-1.8 1.22c-.69.3-1.42.44-2.2.44h-24.37c-1.28 0-2.42-.31-3.42-.94-1-.62-1.85-1.43-2.55-2.41s-1.24-2.08-1.61-3.3-.56-2.4-.56-3.56.19-2.38.58-3.58q.585-1.8 1.71-3.27c1.125-1.47 1.65-1.79 2.71-2.41s2.26-.94 3.6-.94h27.27c.62 0 1.15.22 1.59.65.44.44.65.97.65 1.59s-.22 1.15-.65 1.59c-.44.44-.97.65-1.59.65h-26.24c-1.09 0-1.97.2-2.64.58-.67.39-1.2.87-1.59 1.43s-.65 1.18-.79 1.85-.21 1.29-.21 1.85.07 1.18.21 1.85.41 1.29.79 1.85.92 1.04 1.59 1.43 1.55.58 2.64.58h22.69c.37 0 .71-.17 1.01-.51s.44-.75.44-1.22-.13-.87-.4-1.22a1.28 1.28 0 0 0-1.05-.51h-17.73c-.62 0-1.15-.22-1.59-.65s-.65-.97-.65-1.59Z"/></svg>