<svg xml:space="preserve" width="315" height="195" viewBox="0 0 78.75 48.75" xmlns="http://www.w3.org/2000/svg"><path d="M16.554 29.975c-3.72-.001-6.15-.95-6.941-4.776H.05c0 1.532.803 8.036 6.622 10.766 3.26 1.53 6.9 1.799 9.73 1.799l5.844-9.726c-.404.553-1.217 1.938-5.692 1.937m11.902-12.272L22.334 27.89c1.06-2.18-.65-3.334-1.716-3.656-1.791-.687-7.411-1.793-11.058-2.86-1.826-.533-3.285-1.337-4-1.853-.24-.172-4.145-2.726-4.145-8.04 0-2.261 1.129-11.43 15.19-11.43 11.559 0 14.695 6.757 14.97 10.8h-9.454c-.334-1.471-1.664-3.203-5.72-3.23-.934-.005-4.684.099-5.047 2.533-.153 1.025.295 1.734.877 2.173.58.439 1.62.68 1.996.794 1.71.513 5.45 1.234 7.29 1.687 3.214.79 5.507 1.759 6.939 2.895M74.258.659H52.533v7.867h21.725Zm-1.845 14.62h-19.88v7.866h19.88zm-19.88 14.618H74.26v7.867H52.534Z" fill="#00aae7"/><path d="M43.843 23.135h-8.79l8.79-14.629ZM52.533.66H38.696l-10.24 17.043-6.122 10.188-.089.148-5.844 9.726h9.863l4.73-7.87h12.85v7.87h8.69zm14.392 45.453-.675-2.014-.684 2.014zm2.187 2.474H67.78l-.462-1.343h-2.142l-.454 1.343h-1.297l2.218-6.184h1.251zm-14.86-3.11c0-1.22-.622-1.988-1.483-1.988-.87 0-1.485.76-1.485 1.978v.062c0 1.22.631 1.988 1.493 1.988s1.475-.76 1.475-1.978zm1.334-.037v.107c0 1.846-1.173 3.153-2.817 3.153-1.654 0-2.809-1.289-2.809-3.135v-.107c0-1.855 1.173-3.153 2.817-3.153 1.654 0 2.81 1.29 2.81 3.135m-8.56 3.147h1.288v-6.184h-1.289Zm-5.883-5h1.564v5h1.28v-5h1.564v-1.184h-4.408zm30.598-1.184h-1.288v6.184h3.804v-1.175h-2.516zm-10.947 3.604-2.382-3.604h-1.18v6.184h1.261V44.85l2.461 3.737h1.102v-6.184h-1.262zm-22.358.106-.675-2.014-.683 2.014zm-.003-3.71 2.218 6.184H39.32l-.462-1.343h-2.14l-.454 1.343h-1.297l2.217-6.184zm-27.669 1.183h1.564v5.001h1.28v-5h1.564v-1.184h-4.408zm-2.699 2.421-2.383-3.604H4.5v6.184h1.263V44.85l2.462 3.737h1.102v-6.184h-1.26zm9.824.044h2.4v-1.156h-2.4V43.56h2.73v-1.157h-4.01v6.184h4.044v-1.158H17.89zM1.326 48.586h1.288v-6.184H1.326zm24.4-4.099c0-.619-.383-.928-1.04-.928h-.926v1.864h.952c.658 0 1.013-.37 1.013-.928zm.142 1.802 1.323 2.297h-1.475l-1.147-2.032h-.809v2.032h-1.288v-6.184h2.338c.72 0 1.297.203 1.688.591.338.337.524.822.524 1.432v.036c0 .936-.47 1.528-1.154 1.828m6.48-3.887h1.262v6.184h-1.102l-2.463-3.737v3.737h-1.26v-6.184h1.18l2.383 3.604zm45.12 4.34c0-.17-.117-.257-.305-.257h-.373v.506h.382c.192 0 .295-.102.295-.249m.014.515.421.618h-.444l-.367-.555h-.3v.555h-.38V46.15h.766c.411 0 .676.21.676.57a.54.54 0 0 1-.372.538m1.031-.202c0-.798-.615-1.44-1.43-1.44a1.43 1.43 0 0 0-1.439 1.45c0 .797.614 1.438 1.43 1.438.82 0 1.44-.65 1.44-1.448m.187 0c0 .887-.717 1.627-1.627 1.627s-1.62-.73-1.62-1.618a1.63 1.63 0 0 1 1.63-1.629c.91 0 1.617.732 1.617 1.62" fill="#005592"/></svg>